<svg width="24" height="24" viewBox="0 0 24 24" fill="none" xmlns="http://www.w3.org/2000/svg">
  <path
    d="M4.26599 16.0596C5.11204 17.7701 6.48419 19.1644 8.18099 20.0376C9.86563 20.9026 11.7864 21.1947 13.652 20.8696C15.5234 20.5406 17.2379 19.6144 18.539 18.2296C19.8521 16.8318 20.6882 15.0536 20.927 13.1506C21.1695 11.2433 20.8041 9.30819 19.883 7.62061C18.9705 5.94613 17.5445 4.60885 15.815 3.80561C14.0967 3.00978 12.1656 2.79631 10.315 3.19761C8.46499 3.59861 6.94799 4.51061 5.69499 5.95261C5.54299 6.11261 4.95899 6.75861 4.47499 7.73361"
    stroke="#F6F1EE" stroke-width="2" stroke-linecap="round" stroke-linejoin="round" />
  <path d="M8.931 7.81284L3.891 8.71984L3 3.58984" stroke="#F6F1EE" stroke-width="2"
    stroke-linecap="round" stroke-linejoin="round" />
</svg>