<svg width="16" height="16" viewBox="0 0 16 16" fill="none" xmlns="http://www.w3.org/2000/svg">
    <path d="M7.99999 7.99967C8.36666 7.99967 8.68066 7.86901 8.94199 7.60767C9.20288 7.34679 9.33332 7.03301 9.33332 6.66634C9.33332 6.29967 9.20288 5.98567 8.94199 5.72434C8.68066 5.46345 8.36666 5.33301 7.99999 5.33301C7.63332 5.33301 7.31955 5.46345 7.05866 5.72434C6.79732 5.98567 6.66666 6.29967 6.66666 6.66634C6.66666 7.03301 6.79732 7.34679 7.05866 7.60767C7.31955 7.86901 7.63332 7.99967 7.99999 7.99967ZM7.99999 14.6663C6.2111 13.1441 4.8751 11.7301 3.99199 10.4243C3.10843 9.11901 2.66666 7.91079 2.66666 6.79967C2.66666 5.13301 3.20288 3.80523 4.27532 2.81634C5.34732 1.82745 6.58888 1.33301 7.99999 1.33301C9.4111 1.33301 10.6527 1.82745 11.7247 2.81634C12.7971 3.80523 13.3333 5.13301 13.3333 6.79967C13.3333 7.91079 12.8918 9.11901 12.0087 10.4243C11.1251 11.7301 9.78888 13.1441 7.99999 14.6663Z" fill="#B27F67"></path>
  </svg>