<svg width="16" height="16" viewBox="0 0 16 16" fill="none" xmlns="http://www.w3.org/2000/svg">
    <path
      d="M10.22 7.36678C9.4332 7.92534 8.89699 8.77035 8.72668 9.72012L7.70001 7.75345L5.10668 10.3335L5.33334 12.0001L4.63334 12.7068L3.45334 10.5801L1.33334 9.40678L2.04001 8.70012L3.69334 8.93345L6.28668 6.33345L1.33334 3.74678L2.27334 2.80678L8.40668 4.22012L11 1.62678C11.0924 1.53326 11.2024 1.459 11.3237 1.40832C11.4451 1.35764 11.5752 1.33154 11.7067 1.33154C11.8381 1.33154 11.9683 1.35764 12.0896 1.40832C12.2109 1.459 12.321 1.53326 12.4133 1.62678C12.8 2.02012 12.8 2.66678 12.4133 3.04012L9.82001 5.63345L10.22 7.36678ZM14.6667 10.3335C14.6667 12.0668 12.3333 14.6668 12.3333 14.6668C12.3333 14.6668 10 12.0668 10 10.3335C10 9.06678 11.0667 8.00012 12.3333 8.00012C13.6 8.00012 14.6667 9.06678 14.6667 10.3335ZM13.1333 10.4001C13.1333 10.0001 12.7333 9.60012 12.3333 9.60012C11.9333 9.60012 11.5333 9.93345 11.5333 10.4001C11.5333 10.8001 11.8667 11.2001 12.3333 11.2001C12.8 11.2001 13.2 10.8001 13.1333 10.4001Z"
      fill="#B27F67" />
  </svg>