<svg width="16" height="16" viewBox="0 0 16 16" fill="none" xmlns="http://www.w3.org/2000/svg">
    <path d="M11.3333 12.6667H12.6667V7.33333H8.66668V12.6667H10V8.66667H11.3333V12.6667ZM2.00001 12.6667V2.66667C2.00001 2.48986 2.07025 2.32029 2.19527 2.19526C2.3203 2.07024 2.48987 2 2.66668 2H12C12.1768 2 12.3464 2.07024 12.4714 2.19526C12.5964 2.32029 12.6667 2.48986 12.6667 2.66667V6H14V12.6667H14.6667V14H1.33334V12.6667H2.00001ZM4.66668 7.33333V8.66667H6.00001V7.33333H4.66668ZM4.66668 10V11.3333H6.00001V10H4.66668ZM4.66668 4.66667V6H6.00001V4.66667H4.66668Z" fill="#B27F67"></path>
  </svg>