<svg width="41" height="40" viewBox="0 0 41 40" fill="none" xmlns="http://www.w3.org/2000/svg">
<path d="M18.5879 10.4004L12.9495 3.89204C12.2995 3.14204 11.1079 3.14538 10.3529 3.90204L5.7162 8.54704C4.3362 9.92871 3.9412 11.9804 4.73953 13.6254C9.50889 23.5003 17.4729 31.4755 27.3412 36.2587C28.9845 37.057 31.0345 36.662 32.4145 35.2804L37.0945 30.592C37.8529 29.8337 37.8545 28.6354 37.0979 27.9854L30.5645 22.377C29.8812 21.7904 28.8195 21.867 28.1345 22.5537L25.8612 24.8304C25.7448 24.9523 25.5916 25.0328 25.4251 25.0592C25.2586 25.0857 25.088 25.0569 24.9395 24.977C21.2236 22.8372 18.1412 19.7508 16.0062 16.032C15.9262 15.8833 15.8973 15.7124 15.9238 15.5456C15.9503 15.3788 16.0308 15.2254 16.1529 15.1087L18.4195 12.8404C19.1062 12.1504 19.1812 11.0837 18.5879 10.3987V10.4004Z" stroke="currentColor" stroke-width="2" stroke-linecap="round" stroke-linejoin="round"/>
</svg>
