<svg width="41" height="41" viewBox="0 0 41 41" fill="none" xmlns="http://www.w3.org/2000/svg">
<path d="M3.83154 10.5003C3.83154 9.61627 4.18273 8.76842 4.80785 8.1433C5.43297 7.51818 6.28082 7.16699 7.16488 7.16699H33.8315C34.7156 7.16699 35.5634 7.51818 36.1886 8.1433C36.8137 8.76842 37.1649 9.61627 37.1649 10.5003V30.5003C37.1649 31.3844 36.8137 32.2322 36.1886 32.8573C35.5634 33.4825 34.7156 33.8337 33.8315 33.8337H7.16488C6.28082 33.8337 5.43297 33.4825 4.80785 32.8573C4.18273 32.2322 3.83154 31.3844 3.83154 30.5003V10.5003Z" stroke="currentColor" stroke-width="2" stroke-linecap="round" stroke-linejoin="round"/>
<path d="M5.49805 8.83398L16.0697 18.2307C17.2901 19.3154 18.8661 19.9147 20.4989 19.9147C22.1317 19.9147 23.7077 19.3154 24.928 18.2307L35.498 8.83398" stroke="currentColor" stroke-width="2" stroke-linejoin="round"/>
</svg>
