<?xml-stylesheet type="text/css" href="/css/svg.css" ?>
<svg width="403" height="300" viewBox="0 0 403 300" fill="none" xmlns="http://www.w3.org/2000/svg">
    <g clip-path="url(#popularCities)">
    <path d="M27.0744 187.93V188.095L27.0125 188.169L27.0744 187.93Z" fill="var(--primary-100, #EAE0DB)"/>
    <path d="M100.302 212.8C98.993 213.242 97.6854 213.685 96.3792 214.129V212.8H100.302Z" fill="var(--primary-50, #F5F0ED)"/>
    <path d="M248.033 0.525391H238.361V24.7039H248.033V0.525391Z" fill="var(--primary-100, #EAE0DB)"/>
    <path d="M264.727 22.7979V266.169C252.43 264.354 240.308 261.512 228.485 257.675C226.193 256.932 223.915 256.152 221.651 255.334C221.04 255.119 220.429 254.892 219.822 254.669C217.27 253.724 214.737 252.731 212.224 251.692C210.11 250.821 208.008 249.917 205.919 248.979C203.862 248.05 201.82 247.091 199.791 246.101C196.471 244.474 193.187 242.769 189.939 240.985C187.432 239.598 184.959 238.158 182.519 236.666V22.7979H264.727Z" fill="var(--primary-100, #EAE0DB)"/>
    <path d="M297.885 22.7979V268.61C293.97 268.614 290.056 268.513 286.141 268.308C285.018 268.25 283.895 268.184 282.772 268.11C276.855 267.718 270.957 267.089 265.078 266.223C264.962 266.206 264.843 266.19 264.727 266.169V22.7979H297.885Z" fill="var(--primary-200, #D6C2B8)"/>
    <path d="M209.806 46.9756H197.372V59.4102H209.806V46.9756Z" fill="var(--primary-50, #F5F0ED)"/>
    <path d="M229.84 46.9756H217.405V59.4102H229.84V46.9756Z" fill="var(--primary-50, #F5F0ED)"/>
    <path d="M249.874 46.9756H237.439V59.4102H249.874V46.9756Z" fill="var(--primary-50, #F5F0ED)"/>
    <path d="M210.152 75.2988H197.717V87.7335H210.152V75.2988Z" fill="var(--primary-50, #F5F0ED)"/>
    <path d="M230.185 75.2988H217.75V87.7335H230.185V75.2988Z" fill="var(--primary-50, #F5F0ED)"/>
    <path d="M250.219 75.2988H237.784V87.7335H250.219V75.2988Z" fill="var(--primary-50, #F5F0ED)"/>
    <path d="M210.497 103.622H198.062V116.057H210.497V103.622Z" fill="var(--primary-50, #F5F0ED)"/>
    <path d="M230.531 103.622H218.096V116.057H230.531V103.622Z" fill="var(--primary-50, #F5F0ED)"/>
    <path d="M250.564 103.622H238.129V116.057H250.564V103.622Z" fill="var(--primary-50, #F5F0ED)"/>
    <path d="M210.842 131.945H198.408V144.38H210.842V131.945Z" fill="var(--primary-50, #F5F0ED)"/>
    <path d="M230.876 131.945H218.441V144.38H230.876V131.945Z" fill="var(--primary-50, #F5F0ED)"/>
    <path d="M250.91 131.945H238.475V144.38H250.91V131.945Z" fill="var(--primary-50, #F5F0ED)"/>
    <path d="M211.188 160.27H198.753V172.704H211.188V160.27Z" fill="var(--primary-50, #F5F0ED)"/>
    <path d="M231.221 160.27H218.787V172.704H231.221V160.27Z" fill="var(--primary-50, #F5F0ED)"/>
    <path d="M251.255 160.27H238.82V172.704H251.255V160.27Z" fill="var(--primary-50, #F5F0ED)"/>
    <path d="M211.533 188.593H199.099V201.027H211.533V188.593Z" fill="var(--primary-50, #F5F0ED)"/>
    <path d="M231.567 188.593H219.132V201.027H231.567V188.593Z" fill="var(--primary-50, #F5F0ED)"/>
    <path d="M251.601 188.593H239.166V201.027H251.601V188.593Z" fill="var(--primary-50, #F5F0ED)"/>
    <path d="M211.879 216.916H199.444V229.351H211.879V216.916Z" fill="var(--primary-50, #F5F0ED)"/>
    <path d="M231.912 216.916H219.478V229.351H231.912V216.916Z" fill="var(--primary-50, #F5F0ED)"/>
    <path d="M251.946 216.916H239.511V229.351H251.946V216.916Z" fill="var(--primary-50, #F5F0ED)"/>
    <path d="M212.224 245.238V251.692C210.11 250.821 208.008 249.917 205.919 248.979C203.862 248.05 201.82 247.091 199.791 246.101V245.238H212.224Z" fill="var(--primary-50, #F5F0ED)"/>
    <path d="M232.259 245.238V257.675H228.485C226.193 256.932 223.915 256.152 221.651 255.334C221.04 255.12 220.429 254.892 219.822 254.669V245.238L232.259 245.238Z" fill="var(--primary-50, #F5F0ED)"/>
    <path d="M252.291 245.239H239.856V257.674H252.291V245.239Z" fill="var(--primary-50, #F5F0ED)"/>
    <path d="M360.749 123.656H351.078V137.986H360.749V123.656Z" fill="var(--primary-100, #EAE0DB)"/>
    <path d="M368.35 136.756V256.85C345.75 264.741 321.838 268.597 297.885 268.61C293.97 268.614 290.056 268.513 286.141 268.308V136.756H368.35Z" fill="var(--primary-100, #EAE0DB)"/>
    <path d="M401.507 136.756V241.522C395.187 245.323 388.614 248.688 381.835 251.593C377.401 253.513 372.906 255.266 368.35 256.85V136.756H401.507Z" fill="var(--primary-200, #D6C2B8)"/>
    <path d="M314.81 160.27H302.375V172.704H314.81V160.27Z" fill="var(--primary-50, #F5F0ED)"/>
    <path d="M334.843 160.27H322.409V172.704H334.843V160.27Z" fill="var(--primary-50, #F5F0ED)"/>
    <path d="M354.877 160.27H342.442V172.704H354.877V160.27Z" fill="var(--primary-50, #F5F0ED)"/>
    <path d="M315.155 188.593H302.721V201.027H315.155V188.593Z" fill="var(--primary-50, #F5F0ED)"/>
    <path d="M335.189 188.593H322.754V201.027H335.189V188.593Z" fill="var(--primary-50, #F5F0ED)"/>
    <path d="M355.222 188.593H342.788V201.027H355.222V188.593Z" fill="var(--primary-50, #F5F0ED)"/>
    <path d="M315.501 216.916H303.066V229.351H315.501V216.916Z" fill="var(--primary-50, #F5F0ED)"/>
    <path d="M335.534 216.916H323.1V229.351H335.534V216.916Z" fill="var(--primary-50, #F5F0ED)"/>
    <path d="M355.568 216.916H343.133V229.351H355.568V216.916Z" fill="var(--primary-50, #F5F0ED)"/>
    <path d="M315.846 245.239H303.412V257.674H315.846V245.239Z" fill="var(--primary-50, #F5F0ED)"/>
    <path d="M335.879 245.239H323.445V257.674H335.879V245.239Z" fill="var(--primary-50, #F5F0ED)"/>
    <path d="M355.913 245.239H343.479V257.674H355.913V245.239Z" fill="var(--primary-50, #F5F0ED)"/>
    <path d="M295.872 272.397C295.872 272.397 300.295 288.129 318.821 287.414C337.347 286.699 345.356 272.111 345.356 272.111L295.872 272.397Z" fill="var(--primary-900, #1E140F)"/>
    <path d="M40.5863 211.043L35.2935 220.737L36.1527 238.931L162.984 276.618L218.214 283.41L207.416 217.544L169.633 210.854L112.953 212.474L64.899 203.606L40.5863 211.043Z" fill="var(--primary-900, #1E140F)"/>
    <path d="M58.2421 274.829H54.968C51.8029 274.84 48.7007 273.945 46.0281 272.249C43.3555 270.553 41.2243 268.128 39.8864 265.259C34.8389 254.24 36.3341 239.003 36.3562 238.786C37.5 225.616 44.718 217.023 54.3185 217.413C64.9172 217.841 73.9548 254.499 74.3344 256.06C74.9642 258.691 74.7985 261.45 73.8583 263.987C72.6886 267.182 70.5609 269.939 67.7658 271.879C64.9707 273.82 61.6447 274.85 58.2421 274.829Z" fill="var(--primary-900, #1E140F)"/>
    <path d="M191.755 300C191.195 299.987 190.637 299.933 190.084 299.839C185.848 299.171 181.844 297.462 178.431 294.864C175.019 292.266 172.305 288.862 170.534 284.956C169.206 282.069 167.929 279.113 166.738 276.17C161.954 264.352 165.965 243.692 172.48 235.695C178.231 228.637 184.019 228.693 192.782 228.776C193.681 228.784 194.613 228.793 195.581 228.795C205.309 228.811 215.595 264.599 218.974 276.359C219.243 277.295 219.466 278.069 219.638 278.65C220.168 280.437 220.105 282.575 219.451 285.003C217.389 292.663 210.592 298.344 202.539 299.14C196.755 299.711 193.127 300 191.755 300Z" fill="var(--primary-900, #1E140F)"/>
    <path d="M36.1529 238.932C36.1529 238.932 32.4345 222.342 38.0121 211.044L43.6337 197.457L64.8768 217.193L69.7276 248.076L152.855 260.671C152.855 260.671 147.706 210.043 180.028 208.04C212.35 206.038 227.687 260.671 227.687 260.671L243.814 272.398L356.225 264.103C356.225 264.103 358.21 269.538 355.358 272.398C352.507 275.258 216.068 284.125 216.068 284.125C216.068 284.125 209.204 216.335 182.03 222.628C154.857 228.921 162.984 276.618 162.984 276.618L65.9004 259.526C65.9004 259.526 62.7541 213.475 46.7362 213.475C30.7182 213.475 36.1529 238.932 36.1529 238.932Z" fill="var(--primary-900, #1E140F)"/>
    <path d="M55.3091 181.257L73.6234 152.549L151.711 147.973L238.379 149.117L278.71 186.587L153.999 193.738L53.6008 188.303L55.3091 181.257Z" fill="var(--primary-900, #1E140F)"/>
    <path d="M55.3091 181.257C55.3091 181.257 39.7282 181.582 38.012 211.043C38.012 211.043 54.6019 181.01 68.9037 247.942L154.285 261.814C154.285 261.814 151.138 206.038 183.46 210.328C215.782 214.619 223.505 265.819 223.505 265.819C223.505 265.819 229.798 278.404 264.408 276.402C299.018 274.4 350.79 271.254 356.225 264.103C356.225 264.103 368.81 221.484 329.624 194.024L278.71 186.587L163.438 188.876L55.3091 181.257Z" fill="var(--secondary-400, #EB7833)"/>
    <path d="M94.3608 201.318H84.6356C84.372 201.319 84.1108 201.268 83.867 201.168C83.6232 201.068 83.4016 200.92 83.2149 200.734C83.0281 200.548 82.88 200.327 82.7789 200.084C82.6778 199.84 82.6257 199.579 82.6257 199.316C82.6257 199.052 82.6778 198.791 82.7789 198.548C82.88 198.304 83.0281 198.083 83.2149 197.897C83.4016 197.711 83.6232 197.564 83.867 197.464C84.1108 197.364 84.372 197.312 84.6356 197.313H94.3608C94.8905 197.316 95.3978 197.527 95.7716 197.903C96.1455 198.278 96.3554 198.786 96.3554 199.316C96.3554 199.845 96.1455 200.354 95.7716 200.729C95.3978 201.104 94.8905 201.316 94.3608 201.318Z" fill="var(--primary-100, #EAE0DB)"/>
    <path d="M242.384 263.531C245.859 263.531 248.676 260.713 248.676 257.238C248.676 253.763 245.859 250.945 242.384 250.945C238.908 250.945 236.091 253.763 236.091 257.238C236.091 260.713 238.908 263.531 242.384 263.531Z" fill="var(--primary-50, #F5F0ED)"/>
    <path d="M239.266 226.36C234.958 226.36 229.814 224.521 225.21 220.975C217.086 214.716 213.673 205.476 217.602 200.376C221.53 195.276 231.336 196.219 239.46 202.477C243.386 205.501 246.342 209.302 247.783 213.18C249.233 217.08 248.979 220.594 247.068 223.075C245.366 225.285 242.56 226.36 239.266 226.36Z" fill="var(--primary-50, #F5F0ED)"/>
    <path d="M351.09 218.37C347.92 218.37 342.227 215.161 336.59 209.952C333.211 206.83 330.412 203.484 328.708 200.529C326.977 197.528 326.583 195.271 327.598 194.172C328.613 193.074 330.895 193.289 334.023 194.777C337.103 196.243 340.66 198.769 344.039 201.891C351.169 208.479 355.119 215.411 353.031 217.671C352.774 217.917 352.469 218.107 352.135 218.227C351.8 218.348 351.444 218.396 351.09 218.37Z" fill="var(--primary-50, #F5F0ED)"/>
    <path d="M85.2621 181.251C85.1941 181.251 85.1257 181.248 85.057 181.241L64.3741 179.318C63.9967 179.283 63.6345 179.152 63.3219 178.938C63.0093 178.724 62.7567 178.433 62.5879 178.093C62.4192 177.754 62.3399 177.377 62.3577 176.999C62.3754 176.62 62.4896 176.252 62.6894 175.93L74.3526 157.126C74.5433 156.819 74.8063 156.562 75.1187 156.379C75.4311 156.196 75.7835 156.092 76.1452 156.076L91.5715 155.396C91.9262 155.38 92.2795 155.45 92.6018 155.598C92.9241 155.747 93.2062 155.971 93.4244 156.251C93.6427 156.531 93.7907 156.859 93.8562 157.208C93.9217 157.557 93.9028 157.916 93.801 158.256L87.3944 179.664C87.256 180.122 86.9741 180.523 86.5902 180.809C86.2063 181.095 85.7407 181.25 85.2621 181.251Z" fill="var(--primary-50, #F5F0ED)"/>
    <path d="M139.765 185.657C139.561 185.657 139.356 185.647 139.149 185.627L103.392 182.107C102.488 182.018 101.615 181.733 100.833 181.272C100.05 180.81 99.3782 180.184 98.863 179.436C98.3478 178.688 98.0019 177.837 97.8495 176.942C97.6971 176.047 97.7419 175.129 97.9807 174.253L103.125 155.378C103.471 154.091 104.222 152.948 105.267 152.12C106.313 151.293 107.597 150.823 108.93 150.781L137.787 149.773C139.353 149.727 140.879 150.267 142.067 151.288C143.254 152.31 144.017 153.738 144.206 155.293L146.587 175.835C146.667 176.52 146.632 177.214 146.484 177.888L145.858 180.748C145.554 182.138 144.784 183.383 143.676 184.275C142.568 185.168 141.188 185.655 139.765 185.657Z" fill="var(--primary-50, #F5F0ED)"/>
    <path d="M167.671 186.65C166.625 186.647 165.61 186.291 164.791 185.639C163.972 184.988 163.396 184.08 163.157 183.061L156.849 155.796C156.692 155.116 156.69 154.41 156.843 153.73C156.997 153.05 157.302 152.414 157.736 151.868C158.17 151.322 158.721 150.881 159.349 150.578C159.977 150.276 160.665 150.118 161.363 150.118H236.164C236.785 150.12 237.398 150.245 237.969 150.486C238.54 150.728 239.058 151.081 239.49 151.526L263.923 176.716C264.55 177.363 264.976 178.179 265.146 179.065C265.317 179.95 265.226 180.866 264.884 181.7C264.542 182.534 263.964 183.25 263.221 183.761C262.478 184.271 261.602 184.554 260.7 184.574L167.774 186.649C167.74 186.65 167.705 186.65 167.671 186.65Z" fill="var(--primary-50, #F5F0ED)"/>
    <path d="M72.9849 153.551L73.6234 152.55C73.6234 152.55 77.3418 142.253 128.542 140.536C179.742 138.82 227.51 139.678 238.379 149.117L149.994 148.831L75.3396 153.98L72.9849 153.551Z" fill="var(--secondary-400, #EB7833)"/>
    <path d="M48.7383 226.918C43.3672 226.918 39.0132 235.882 39.0132 246.94C39.0132 257.998 43.3672 266.963 48.7383 266.963C54.1094 266.963 58.4635 257.998 58.4635 246.94C58.4635 235.882 54.1094 226.918 48.7383 226.918ZM49.1674 231.208C50.3522 231.208 51.3127 233.514 51.3127 236.357C51.3127 239.201 50.3522 241.506 49.1674 241.506C47.9826 241.506 47.0221 239.201 47.0221 236.357C47.0221 233.514 47.9826 231.208 49.1674 231.208ZM50.4546 246.94C50.4546 247.888 49.8142 248.657 49.0244 248.657C48.2346 248.657 47.5942 247.888 47.5942 246.94C47.5942 245.992 48.2346 245.224 49.0244 245.224C49.8142 245.224 50.4546 245.993 50.4546 246.94V246.94ZM42.9819 248.042C41.1427 248.184 39.6038 247.678 39.5446 246.912C39.4854 246.145 40.9283 245.409 42.7675 245.267C44.6067 245.125 46.1455 245.631 46.2047 246.397C46.2639 247.163 44.821 247.9 42.9819 248.042L42.9819 248.042ZM49.1674 262.672C47.9826 262.672 47.0222 260.367 47.0222 257.524C47.0222 254.68 47.9826 252.375 49.1674 252.375C50.3522 252.375 51.3127 254.68 51.3127 257.524C51.3127 260.367 50.3522 262.672 49.1674 262.672H49.1674ZM54.7093 248.042C52.8701 248.184 51.3312 247.678 51.272 246.912C51.2128 246.145 52.6557 245.409 54.4949 245.267C56.3341 245.125 57.8729 245.631 57.9321 246.397C57.9913 247.163 56.5484 247.9 54.7093 248.042L54.7093 248.042Z" fill="var(--primary-50, #F5F0ED)"/>
    <path d="M184.605 240.362C176.074 240.362 169.159 251.824 169.159 265.962C169.159 280.101 176.074 291.562 184.605 291.562C193.135 291.562 200.05 280.101 200.05 265.962C200.05 251.824 193.135 240.362 184.605 240.362ZM175.377 267.883C172.886 268.076 170.801 267.39 170.721 266.352C170.641 265.314 172.595 264.317 175.087 264.124C177.578 263.932 179.662 264.618 179.742 265.656C179.823 266.694 177.868 267.691 175.377 267.883ZM184.614 287.415C183.009 287.415 181.708 284.293 181.708 280.441C181.708 276.589 183.009 273.467 184.614 273.467C186.219 273.467 187.52 276.589 187.52 280.441C187.52 284.293 186.219 287.415 184.614 287.415ZM182.316 266.105C182.316 264.589 183.341 263.359 184.605 263.359C185.868 263.359 186.893 264.589 186.893 266.105C186.893 267.622 185.868 268.851 184.605 268.851C183.341 268.851 182.316 267.622 182.316 266.105ZM184.614 258.744C183.009 258.744 181.708 255.622 181.708 251.77C181.708 247.918 183.009 244.796 184.614 244.796C186.219 244.796 187.52 247.918 187.52 251.77C187.52 255.622 186.219 258.744 184.614 258.744ZM194.409 267.311C191.917 267.504 189.833 266.818 189.753 265.78C189.672 264.742 191.627 263.745 194.118 263.552C196.609 263.36 198.694 264.045 198.774 265.083C198.854 266.121 196.9 267.119 194.409 267.311Z" fill="var(--primary-50, #F5F0ED)"/>
    <path d="M130.544 189.162L133.976 197.171C133.976 197.171 139.697 199.459 143.416 191.736L135.881 184.201L130.544 189.162Z" fill="var(--primary-100, #EAE0DB)"/>
    <path d="M125.825 191.021C119.673 191.021 114.669 187.685 114.669 183.584C114.669 179.484 119.673 176.147 125.825 176.147C131.976 176.147 136.98 179.484 136.98 183.584C136.98 187.685 131.976 191.021 125.825 191.021Z" fill="var(--primary-900, #1E140F)"/>
    <path d="M340.923 217.193L276.972 219.063C276.972 219.063 262.976 222.989 261.548 234.205C261.548 234.205 263.547 243.365 268.688 243.365C273.83 243.365 352.662 239.253 352.662 239.253C352.662 239.253 357.804 231.401 353.519 225.793C349.235 220.184 340.923 217.193 340.923 217.193Z" fill="var(--primary-900, #1E140F)"/>
    <path d="M346.46 220.767L271.463 223.246L271.491 224.104L346.488 221.624L346.46 220.767Z" fill="var(--primary-50, #F5F0ED)"/>
    <path d="M349.188 223.486L267.622 227.182L267.66 228.039L349.227 224.343L349.188 223.486Z" fill="var(--primary-50, #F5F0ED)"/>
    <path d="M352.043 227.179L264.571 231.876L264.617 232.733L352.089 228.036L352.043 227.179Z" fill="var(--primary-50, #F5F0ED)"/>
    <path d="M48.2838 208.169C47.9345 207.72 47.6878 207.2 47.5611 206.646C47.4344 206.091 47.4309 205.516 47.5507 204.96C47.6705 204.404 47.9107 203.881 48.2545 203.428C48.5983 202.974 49.0372 202.602 49.5404 202.337L48.7279 193.484L53.9876 191.678L54.9595 204.197C55.3491 205.072 55.4042 206.059 55.1142 206.972C54.8242 207.885 54.2094 208.66 53.3863 209.149C52.5631 209.639 51.5889 209.81 50.6483 209.629C49.7077 209.449 48.8661 208.929 48.283 208.169L48.2838 208.169Z" fill="var(--primary-50, #F5F0ED)"/>
    <path d="M53.9303 157.355C53.9303 157.355 57.5397 149.78 60.7472 152.442C63.9547 155.105 56.3499 177.505 56.3499 177.505L55.1935 199.251L49.0979 198.641L47.3743 177.457L53.9303 157.355Z" fill="var(--primary-300, #C1A394)"/>
    <path d="M5.5144 269.425L10.0392 273.088L26.3206 257.376L19.6425 251.972L5.5144 269.425Z" fill="var(--primary-50, #F5F0ED)"/>
    <path d="M5.5556 267.013L14.4668 274.225C15.9728 275.445 16.9328 277.212 17.1356 279.139C17.3385 281.066 16.7675 282.995 15.5483 284.501L15.399 284.685L0.809326 272.876L5.5556 267.013Z" fill="var(--primary-900, #1E140F)"/>
    <path d="M68.4008 279.592H74.2224L76.9904 257.136H68.3997L68.4008 279.592Z" fill="var(--primary-50, #F5F0ED)"/>
    <path d="M66.9153 277.691H78.3806C80.3182 277.691 82.1766 278.461 83.5468 279.831C84.917 281.201 85.6869 283.059 85.6871 284.997V285.235H66.9157L66.9153 277.691Z" fill="var(--primary-900, #1E140F)"/>
    <path d="M78.6157 174.32C78.6157 174.32 89.5375 187.615 87.1632 200.913C84.7889 214.21 82.8895 224.181 82.8895 224.181L79.0925 254.097C79.0925 254.097 80.5171 262.245 78.6177 264.344C78.6177 264.344 81.4668 269.292 76.2434 271.192C71.0199 273.091 68.1996 270.537 68.1996 270.537C68.1996 270.537 64.3699 265.02 66.7442 263.597L67.7446 204.883L29.7054 254.571C29.7054 254.571 29.0063 260.614 24.1322 260.68L18.3087 265.018L11.6606 261.219L14.9847 256.945C14.9847 256.945 13.0852 252.196 17.359 251.247L42.0518 218.957L48.225 202.337C48.225 202.337 51.549 189.515 60.5714 184.292V178.734L78.6157 174.32Z" fill="var(--primary-900, #1E140F)"/>
    <path d="M59.8589 151.29C61.2967 149.591 63.3092 148.48 65.5132 148.169C67.7172 147.858 69.9587 148.368 71.8107 149.603L72.2053 149.866C76.4202 154.64 79.2531 160.472 80.3988 166.736L82.177 176.458L59.8585 181.293L54.6264 163.248C53.9623 160.958 54.1222 158.507 55.0781 156.322C56.034 154.138 57.7256 152.357 59.8585 151.291L59.8589 151.29Z" fill="var(--primary-500, #98664D)"/>
    <path d="M96.5267 210.236C95.9079 210.034 95.341 209.698 94.866 209.253C94.3909 208.808 94.0192 208.264 93.777 207.66C93.5349 207.056 93.4281 206.406 93.4643 205.756C93.5006 205.106 93.6788 204.472 93.9866 203.898L87.5483 196.019L91.3823 190.938L100.318 202.194C101.247 202.775 101.931 203.676 102.24 204.728C102.549 205.779 102.461 206.907 101.994 207.898C101.527 208.89 100.712 209.675 99.7043 210.106C98.6967 210.537 97.5661 210.583 96.5266 210.236H96.5267Z" fill="var(--primary-50, #F5F0ED)"/>
    <path d="M69.3558 158.413C69.3558 158.413 67.9313 148.915 72.6799 149.39C77.4284 149.865 84.5514 175.983 84.5514 175.983L97.3726 197.351L91.1994 200.675L76.0039 181.681L69.3558 158.413Z" fill="var(--primary-300, #C1A394)"/>
    <path d="M78.0519 144.529H55.4395C54.9743 144.528 54.5284 144.343 54.1995 144.014C53.8706 143.685 53.6856 143.239 53.6851 142.774V133.027C53.6851 129.564 55.0611 126.241 57.5104 123.792C59.9598 121.343 63.2818 119.967 66.7457 119.967C70.2096 119.967 73.5316 121.343 75.981 123.792C78.4303 126.241 79.8063 129.564 79.8063 133.027V142.774C79.8058 143.239 79.6208 143.685 79.2919 144.014C78.963 144.343 78.517 144.528 78.0519 144.529Z" fill="var(--primary-900, #1E140F)"/>
    <path d="M69.4296 144.302C74.718 144.302 79.0052 140.014 79.0052 134.726C79.0052 129.438 74.718 125.15 69.4296 125.15C64.1411 125.15 59.854 129.438 59.854 134.726C59.854 140.014 64.1411 144.302 69.4296 144.302Z" fill="var(--primary-100, #EAE0DB)"/>
    <path d="M82.896 134.002H70.8451L70.7215 132.017L70.1036 134.002H68.2482L68.0034 130.067L66.7788 134.002H63.1885V133.807C63.1885 128.11 67.2279 123.476 72.1945 123.476H73.8935C78.8585 123.476 82.8995 128.11 82.8995 133.807L82.896 134.002Z" fill="var(--primary-900, #1E140F)"/>
    <path d="M71.3442 146.348C71.197 146.348 71.05 146.336 70.9045 146.314L56.5608 144.104V129.165C56.5608 127.638 57.1671 126.175 58.2462 125.096C59.3254 124.016 60.7891 123.41 62.3153 123.41H72.3505L71.9606 123.808C66.522 129.344 70.6195 138.324 73.5458 143.185C73.7606 143.534 73.8576 143.943 73.8225 144.352C73.7874 144.76 73.6221 145.147 73.3509 145.454C73.1019 145.74 72.7933 145.969 72.4469 146.123C72.1004 146.278 71.7244 146.355 71.345 146.349L71.3442 146.348Z" fill="var(--primary-900, #1E140F)"/>
    </g>
    <defs>
    <clipPath id="popularCities">
    <rect width="401.439" height="300" fill="white" transform="translate(0.809326)"/>
    </clipPath>
    </defs>
    </svg>
    