<?xml-stylesheet type="text/css" href="/css/svg.css" ?>
<svg width="339" height="300" viewBox="0 0 339 300" fill="none" xmlns="http://www.w3.org/2000/svg">
    <path d="M167.674 160.901H65.8838C63.1973 160.898 60.6216 159.83 58.722 157.93C56.8223 156.03 55.7538 153.455 55.7507 150.768V97.9534C55.7538 95.2668 56.8223 92.6912 58.722 90.7916C60.6216 88.8919 63.1973 87.8233 65.8838 87.8203H167.674C170.36 87.8233 172.936 88.8919 174.836 90.7916C176.735 92.6912 177.804 95.2668 177.807 97.9534V150.768C177.804 153.455 176.735 156.03 174.836 157.93C172.936 159.83 170.36 160.898 167.674 160.901Z" fill="var(--primary-100, #EAE0DB)"/>
    <path d="M301.708 160.901H199.918C197.231 160.898 194.656 159.83 192.756 157.93C190.856 156.03 189.788 153.455 189.785 150.768V97.9534C189.788 95.2668 190.856 92.6912 192.756 90.7916C194.656 88.8919 197.231 87.8233 199.918 87.8203H301.708C304.394 87.8233 306.97 88.8919 308.869 90.7916C310.769 92.6912 311.838 95.2668 311.841 97.9534V150.768C311.838 153.455 310.769 156.03 308.869 157.93C306.97 159.83 304.394 160.898 301.708 160.901Z" fill="var(--primary-100, #EAE0DB)"/>
    <path d="M301.708 77.3797H199.918C197.231 77.3767 194.656 76.3081 192.756 74.4085C190.856 72.5088 189.788 69.9332 189.785 67.2467V10.1331C189.788 7.44654 190.856 4.87092 192.756 2.97126C194.656 1.0716 197.231 0.00303632 199.918 0H301.708C304.394 0.00303632 306.97 1.0716 308.869 2.97126C310.769 4.87092 311.838 7.44654 311.841 10.1331V67.2467C311.838 69.9332 310.769 72.5088 308.869 74.4085C306.97 76.3081 304.394 77.3767 301.708 77.3797Z" fill="var(--primary-100, #EAE0DB)"/>
    <path d="M308.463 251.791H61.5849C60.0376 251.791 58.5536 251.177 57.4595 250.083C56.3654 248.989 55.7507 247.505 55.7507 245.957C55.7507 244.41 56.3654 242.926 57.4595 241.832C58.5536 240.738 60.0376 240.123 61.5849 240.123H308.463C310.01 240.123 311.494 240.738 312.589 241.832C313.683 242.926 314.297 244.41 314.297 245.957C314.297 247.505 313.683 248.989 312.589 250.083C311.494 251.177 310.01 251.791 308.463 251.791Z" fill="var(--primary-100, #EAE0DB)"/>
    <path d="M174.277 245.65H73.5603V222.313C73.5603 208.957 78.8659 196.149 88.3099 186.705C97.7539 177.261 110.563 171.955 123.919 171.955C137.274 171.955 150.083 177.261 159.527 186.705C168.971 196.149 174.277 208.957 174.277 222.313V245.65Z" fill="var(--primary-100, #EAE0DB)"/>
    <path d="M294.645 245.65H193.929V222.313C193.929 208.957 199.234 196.149 208.678 186.705C218.122 177.261 230.931 171.955 244.287 171.955C257.643 171.955 270.452 177.261 279.896 186.705C289.34 196.149 294.645 208.957 294.645 222.313V245.65Z" fill="var(--primary-100, #EAE0DB)"/>
    <path d="M239.681 299.386H247.665V247.799H239.681V299.386Z" fill="var(--primary-100, #EAE0DB)"/>
    <path d="M216.958 299.106C216.958 299.968 229.056 299.439 243.98 299.439C258.904 299.439 271.001 299.968 271.001 299.106C271.001 298.243 258.904 291.402 243.98 291.402C229.056 291.402 216.958 298.243 216.958 299.106Z" fill="var(--primary-100, #EAE0DB)"/>
    <path d="M119.313 299.386H127.296V247.799H119.313V299.386Z" fill="var(--primary-100, #EAE0DB)"/>
    <path d="M96.5901 299.106C96.5901 299.968 108.688 299.439 123.612 299.439C138.535 299.439 150.633 299.968 150.633 299.106C150.633 298.243 138.535 291.402 123.612 291.402C108.688 291.402 96.5901 298.243 96.5901 299.106Z" fill="var(--primary-100, #EAE0DB)"/>
    <path d="M159.187 292.353H166.716L170.298 263.312H159.186L159.187 292.353Z" fill="var(--primary-400, #AD8571)"/>
    <path d="M181.236 299.344L157.574 299.345L157.573 290.202L172.094 290.202C173.294 290.202 174.483 290.438 175.592 290.897C176.701 291.357 177.709 292.03 178.558 292.879C179.407 293.728 180.081 294.736 180.54 295.845C181 296.954 181.236 298.143 181.236 299.344L181.236 299.344Z" fill="var(--primary-900, #1E140F)"/>
    <path d="M170.94 288.152L178.123 285.897L172.846 257.116L162.244 260.443L170.94 288.152Z" fill="var(--primary-400, #AD8571)"/>
    <path d="M194.07 288.22L171.493 295.305L168.756 286.582L182.61 282.234C184.923 281.508 187.431 281.731 189.58 282.853C191.729 283.976 193.344 285.906 194.07 288.22Z" fill="var(--primary-900, #1E140F)"/>
    <path d="M165.902 274.785L152.129 238.631C149.039 239.357 123.126 245.091 114.447 235.85C111.473 232.683 110.893 228.094 112.723 222.212L117.788 215.847L117.946 215.855C119.861 215.956 164.886 218.48 167.973 232.061C170.575 243.511 175.328 264.859 176.723 271.129C176.864 271.778 176.767 272.457 176.45 273.042C176.133 273.626 175.616 274.077 174.994 274.312L169.455 276.389C169.147 276.505 168.82 276.565 168.49 276.565C167.929 276.565 167.382 276.395 166.92 276.077C166.458 275.759 166.103 275.309 165.902 274.785Z" fill="var(--primary-900, #1E140F)"/>
    <path d="M157.919 279.084L144.146 242.93C141.056 243.656 115.143 249.389 106.464 240.149C103.489 236.982 102.909 232.393 104.739 226.51L109.805 220.146L109.962 220.154C111.877 220.255 156.903 222.778 159.989 236.36C162.592 247.81 167.344 269.157 168.739 275.428C168.88 276.077 168.784 276.756 168.466 277.34C168.149 277.925 167.633 278.376 167.011 278.611L161.472 280.688C161.163 280.804 160.836 280.863 160.506 280.863C159.946 280.863 159.398 280.693 158.936 280.376C158.474 280.058 158.12 279.608 157.919 279.084Z" fill="var(--primary-900, #1E140F)"/>
    <path d="M145.53 208.94C143.489 208.939 141.482 208.408 139.708 207.4C137.933 206.391 136.451 204.938 135.406 203.185L131.032 195.775L141.429 190.092L145.843 196.145L175.797 192.989C175.942 192.726 176.106 192.472 176.287 192.231C176.862 191.475 177.59 190.848 178.423 190.392C179.256 189.935 180.176 189.659 181.123 189.582C182.074 189.501 183.031 189.623 183.931 189.942C184.83 190.262 185.651 190.769 186.338 191.432C187.44 192.488 188.152 193.886 188.359 195.398C188.566 196.91 188.257 198.448 187.48 199.762C186.994 200.58 186.341 201.287 185.563 201.836C184.785 202.384 183.9 202.762 182.966 202.945C182.032 203.128 181.069 203.111 180.142 202.896C179.214 202.681 178.343 202.272 177.585 201.697C177.409 201.562 177.24 201.419 177.079 201.267L148.391 208.581C147.456 208.82 146.495 208.94 145.53 208.94Z" fill="var(--primary-200, #D6C2B8)"/>
    <path d="M104.545 228.419C104.13 228.12 103.807 227.713 103.609 227.241C103.412 226.77 103.349 226.253 103.428 225.748C105.137 214.484 103.171 198.347 101.22 186.793C100.821 184.449 100.976 182.043 101.674 179.77C102.371 177.497 103.592 175.418 105.237 173.701C106.882 171.984 108.907 170.676 111.148 169.882C113.39 169.089 115.786 168.831 118.145 169.129C120.198 169.401 122.231 169.801 124.233 170.33C127.558 171.167 130.5 173.111 132.574 175.842C134.647 178.573 135.73 181.928 135.645 185.356C135.353 196.505 137.617 210.416 138.604 215.879C138.671 216.254 138.66 216.639 138.572 217.01C138.484 217.381 138.32 217.73 138.092 218.035C137.867 218.336 137.582 218.588 137.255 218.773C136.927 218.958 136.565 219.073 136.191 219.109C125.254 220.225 113.46 225.559 107.404 228.638C107.015 228.839 106.583 228.945 106.145 228.946C105.569 228.944 105.009 228.76 104.545 228.419Z" fill="var(--primary-400, #AD8571)"/>
    <path d="M134.066 199.364C133.728 199.232 133.42 199.033 133.159 198.78C132.899 198.528 132.691 198.226 132.547 197.892L126.448 183.803C126.079 182.951 125.881 182.036 125.866 181.108C125.85 180.18 126.018 179.258 126.359 178.395C126.701 177.532 127.208 176.745 127.854 176.079C128.5 175.412 129.27 174.879 130.122 174.511C130.973 174.142 131.889 173.945 132.817 173.931C133.745 173.916 134.666 174.085 135.529 174.427C136.392 174.768 137.179 175.277 137.845 175.923C138.511 176.569 139.043 177.34 139.411 178.192L145.51 192.282C145.8 192.954 145.812 193.715 145.542 194.396C145.272 195.077 144.744 195.623 144.072 195.915L136.181 199.331C135.849 199.476 135.49 199.554 135.127 199.56C134.764 199.565 134.404 199.499 134.066 199.364Z" fill="var(--primary-400, #AD8571)"/>
    <path d="M117.023 164.337C125.353 164.337 132.106 157.584 132.106 149.253C132.106 140.923 125.353 134.17 117.023 134.17C108.692 134.17 101.939 140.923 101.939 149.253C101.939 157.584 108.692 164.337 117.023 164.337Z" fill="var(--primary-200, #D6C2B8)"/>
    <path d="M107.908 162.653C107.694 162.9 107.433 163.101 107.14 163.245C106.847 163.389 106.529 163.473 106.203 163.492C105.877 163.511 105.551 163.464 105.243 163.354C104.936 163.245 104.654 163.075 104.413 162.854C101.05 160.132 98.3822 156.648 96.6307 152.691C94.6698 148.017 94.3824 142.313 96.6141 137.932C98.5007 134.228 101.887 131.871 105.268 129.944C106.564 129.127 107.985 128.527 109.474 128.166C110.226 127.996 111.005 127.984 111.762 128.133C112.519 128.282 113.236 128.587 113.867 129.03C114.537 129.54 115.056 130.222 115.367 131.004C115.679 131.786 115.771 132.638 115.635 133.469C117.181 131.431 119.266 129.867 121.654 128.951C123.12 128.32 124.757 128.21 126.293 128.64C128.465 129.365 130.072 131.557 130.966 133.913C131.689 135.717 131.954 137.671 131.737 139.602C131.642 140.524 131.361 141.417 130.91 142.227C130.46 143.037 129.849 143.747 129.115 144.313C127.344 145.535 125.063 145.411 123.003 144.87C120.943 144.33 118.944 143.413 116.849 143.157C114.753 142.901 112.43 143.455 111.182 145.325C110.303 146.641 110.095 148.375 109.916 150.028L108.983 158.625C108.917 159.855 108.652 161.066 108.198 162.211C108.121 162.371 108.024 162.519 107.908 162.653Z" fill="var(--primary-900, #1E140F)"/>
    <path d="M140.15 224.69C139.254 224.376 138.433 223.878 137.741 223.226C137.05 222.575 136.504 221.785 136.138 220.908C136.053 220.703 135.98 220.495 135.917 220.282L103.785 211.136C102.404 210.737 101.189 209.904 100.319 208.76C99.4494 207.616 98.9719 206.221 98.9573 204.784L98.8789 192.378L110.723 192.695L111.495 200.147L138.971 212.483C139.23 212.328 139.499 212.192 139.777 212.075H139.777C140.789 211.65 141.889 211.479 142.982 211.575C144.076 211.671 145.129 212.031 146.052 212.625C146.974 213.219 147.739 214.029 148.278 214.985C148.818 215.94 149.117 217.013 149.15 218.11C149.182 219.207 148.947 220.295 148.465 221.281C147.983 222.267 147.268 223.121 146.382 223.768C145.496 224.416 144.466 224.839 143.38 224.999C142.294 225.16 141.186 225.053 140.15 224.69V224.69Z" fill="var(--primary-200, #D6C2B8)"/>
    <path d="M99.0633 197.825C98.822 197.553 98.6371 197.237 98.519 196.893C98.401 196.55 98.3522 196.186 98.3756 195.824L99.3176 180.5C99.3731 179.573 99.6107 178.666 100.017 177.832C100.423 176.997 100.99 176.25 101.685 175.635C102.38 175.019 103.19 174.547 104.068 174.244C104.945 173.942 105.874 173.816 106.801 173.873C107.728 173.93 108.634 174.169 109.468 174.577C110.302 174.984 111.048 175.552 111.662 176.248C112.277 176.945 112.748 177.755 113.049 178.633C113.349 179.512 113.474 180.441 113.415 181.367L112.474 196.691C112.428 197.423 112.094 198.106 111.545 198.591C110.996 199.076 110.277 199.324 109.546 199.28L100.964 198.752C100.602 198.731 100.247 198.638 99.9207 198.479C99.5944 198.32 99.303 198.097 99.0633 197.825Z" fill="var(--primary-400, #AD8571)"/>
    <path d="M182.916 205.425H174.235C173.957 205.426 173.688 205.322 173.481 205.135C173.275 204.948 173.146 204.691 173.12 204.413L171.382 186.603H185.769L184.031 204.413C184.005 204.69 183.876 204.948 183.67 205.135C183.464 205.322 183.195 205.426 182.916 205.425Z" fill="var(--primary-100, #EAE0DB)"/>
    <path d="M185.746 188.844H171.406C171.108 188.843 170.824 188.725 170.614 188.515C170.404 188.305 170.286 188.02 170.285 187.723V185.034C170.286 184.737 170.404 184.453 170.614 184.243C170.824 184.033 171.108 183.914 171.406 183.914H185.746C186.043 183.914 186.328 184.033 186.538 184.243C186.748 184.453 186.866 184.737 186.867 185.034V187.723C186.866 188.02 186.748 188.305 186.538 188.515C186.328 188.725 186.043 188.843 185.746 188.844Z" fill="var(--primary-900, #1E140F)"/>
    <path d="M52.3895 189.457H34.8787C34.3627 189.457 33.8679 189.662 33.503 190.027C33.1381 190.392 32.9331 190.887 32.9331 191.403V228.37H35.8516V194.321C35.8516 193.805 36.0565 193.31 36.4214 192.945C36.7863 192.58 37.2812 192.375 37.7972 192.375H50.4438C50.9598 192.375 51.4547 192.58 51.8196 192.945C52.1845 193.31 52.3895 193.805 52.3895 194.321V228.37H55.3079V191.403C55.3079 190.887 55.1029 190.392 54.738 190.027C54.3732 189.662 53.8783 189.457 53.3623 189.457H52.3895Z" fill="var(--secondary-400, #EB7833)"/>
    <path d="M64.0632 299.386H22.2321C20.0398 299.383 17.938 298.511 16.3878 296.961C14.8376 295.411 13.9656 293.309 13.9631 291.117V229.829C13.9656 227.637 14.8376 225.535 16.3878 223.985C17.938 222.435 20.0398 221.563 22.2321 221.561H64.0632C66.2555 221.563 68.3573 222.435 69.9075 223.985C71.4577 225.535 72.3297 227.637 72.3321 229.829V291.117C72.3297 293.309 71.4577 295.411 69.9075 296.961C68.3573 298.511 66.2555 299.383 64.0632 299.386Z" fill="var(--secondary-400, #EB7833)"/>
    <path d="M14.7253 272.562C11.8819 272.562 10.3477 266.673 10.3477 261.132C10.3477 255.59 11.8819 249.701 14.7253 249.701C17.5687 249.701 19.103 255.59 19.103 261.132C19.103 266.673 17.5687 272.562 14.7253 272.562ZM14.7253 250.674C13.1148 250.674 11.3205 254.969 11.3205 261.132C11.3205 267.295 13.1148 271.59 14.7253 271.59C16.3358 271.59 18.1302 267.295 18.1302 261.132C18.1302 254.969 16.3358 250.674 14.7253 250.674Z" fill="var(--secondary-400, #EB7833)"/>
    <path d="M61.1448 262.905H53.3622C52.7174 262.904 52.0993 262.648 51.6433 262.192C51.1874 261.736 50.9309 261.118 50.9302 260.473V254.636C50.9309 253.991 51.1874 253.373 51.6433 252.917C52.0993 252.461 52.7174 252.205 53.3622 252.204H61.1448C61.7896 252.205 62.4077 252.461 62.8636 252.917C63.3196 253.373 63.576 253.991 63.5768 254.636V260.473C63.576 261.118 63.3196 261.736 62.8636 262.192C62.4077 262.648 61.7896 262.904 61.1448 262.905V262.905Z" fill="var(--primary-50, #F5F0ED)"/>
    <path d="M63.5768 295.265H19.1029C18.8449 295.265 18.5975 295.163 18.4151 294.98C18.2326 294.798 18.1301 294.55 18.1301 294.292V226.425C18.1301 226.167 18.2326 225.92 18.4151 225.737C18.5975 225.555 18.8449 225.452 19.1029 225.452H63.5768C63.8348 225.452 64.0823 225.555 64.2647 225.737C64.4471 225.92 64.5496 226.167 64.5496 226.425C64.5496 226.683 64.4471 226.93 64.2647 227.113C64.0823 227.295 63.8348 227.398 63.5768 227.398H20.0758V293.319H63.5768C63.8344 293.32 64.0812 293.423 64.2631 293.605C64.445 293.788 64.5472 294.035 64.5472 294.292C64.5472 294.55 64.445 294.797 64.2631 294.979C64.0812 295.162 63.8344 295.264 63.5768 295.265V295.265Z" fill="var(--primary-50, #F5F0ED)"/>
    <path d="M298.164 113.279C297.592 112.786 296.929 112.409 296.213 112.17C294.61 111.674 292.926 111.491 291.254 111.631C290.027 111.7 288.808 111.87 287.609 112.138L231.622 127.978C230.565 128.275 229.525 128.621 228.503 129.016C224.895 127.603 214.691 123.518 213.573 122.052L209.185 123.335L216.5 134.255C216.315 134.336 216.159 134.471 216.052 134.642C215.945 134.813 215.892 135.013 215.9 135.215C215.908 135.416 215.977 135.611 216.098 135.773C216.218 135.935 216.385 136.057 216.576 136.122C225.01 139.018 237.748 135.173 237.748 135.173L286.669 121.196C286.669 121.196 301.435 116.202 298.164 113.279Z" fill="var(--primary-50, #F5F0ED)"/>
    <path d="M269.773 53.7363C268.51 53.736 267.261 53.9964 266.103 54.5013C264.945 55.0061 263.904 55.7446 263.045 56.6703C262.021 56.2631 260.913 56.1129 259.817 56.233C258.722 56.353 257.672 56.7397 256.761 57.3591C255.849 57.9785 255.103 58.8118 254.588 59.7861C254.073 60.7604 253.805 61.8461 253.806 62.9482H278.985C278.985 60.5051 278.015 58.162 276.287 56.4344C274.56 54.7069 272.217 53.7363 269.773 53.7363Z" fill="var(--primary-50, #F5F0ED)"/>
    <path d="M134.666 23.6436C133.403 23.6432 132.153 23.9037 130.996 24.4085C129.838 24.9134 128.797 25.6518 127.938 26.5776C126.914 26.1703 125.805 26.0201 124.71 26.1402C123.614 26.2603 122.565 26.6469 121.653 27.2663C120.742 27.8857 119.996 28.719 119.481 29.6933C118.966 30.6677 118.697 31.7533 118.698 32.8554H143.878C143.878 30.4123 142.907 28.0692 141.18 26.3417C139.452 24.6141 137.109 23.6436 134.666 23.6436Z" fill="var(--primary-50, #F5F0ED)"/>
    <path d="M92.9052 104.094C91.6422 104.093 90.3928 104.354 89.2351 104.859C88.0773 105.364 87.0363 106.102 86.1772 107.028C85.1531 106.62 84.0448 106.47 82.9493 106.59C81.8537 106.71 80.8043 107.097 79.8927 107.717C78.9811 108.336 78.2352 109.169 77.7201 110.144C77.205 111.118 76.9365 112.204 76.938 113.306H102.117C102.117 112.096 101.879 110.898 101.416 109.78C100.953 108.663 100.274 107.647 99.419 106.792C98.5636 105.936 97.5481 105.258 96.4305 104.795C95.3128 104.332 94.115 104.094 92.9052 104.094Z" fill="var(--primary-50, #F5F0ED)"/>
    </svg>
    