<?xml-stylesheet type="text/css" href="/css/svg.css" ?>
<svg width="348" height="48" viewBox="0 0 348 48" fill="none" xmlns="http://www.w3.org/2000/svg">
<path d="M56 36C56 29.3726 61.3726 24 68 24C74.6274 24 80 29.3726 80 36C80 42.6274 74.6274 48 68 48H56V36Z" fill="var(--primary-700, #55382B)"/>
<path fill-rule="evenodd" clip-rule="evenodd" d="M44 44V24C44 12.9543 35.0457 4 24 4C12.9543 4 4 12.9543 4 24C4 35.0457 12.9543 44 24 44H44ZM24 0C10.7452 0 0 10.7452 0 24C0 37.2548 10.7452 48 24 48H48V24C48 10.7452 37.2548 0 24 0Z" fill="var(--secondary-400, #FF701A)"/>
<path d="M100.692 48C98.8842 48 97.4755 47.473 96.4654 46.419C95.482 45.365 94.9903 43.863 94.9903 41.913V30.8063H92V28.4348H94.9903V22.7431H98.0602V28.4348H102.885V30.8063H98.0602V41.9921C98.0602 43.3096 98.326 44.2451 98.8576 44.7984C99.3892 45.3254 100.359 45.5889 101.768 45.5889C102.459 45.5889 103.19 45.4308 103.961 45.1146V47.6047C103.084 47.8682 101.994 48 100.692 48Z" fill="var(--primary-700, #55382B)"/>
<path d="M108.157 28.4348H111.147V32.1502C112.689 29.6733 115.573 28.4348 119.799 28.4348V30.8854C115.174 30.8854 112.316 32.4005 111.227 35.4308V47.4071H108.157V28.4348Z" fill="var(--primary-700, #55382B)"/>
<path d="M128.677 48C126.365 48 124.53 47.4335 123.175 46.3004C121.846 45.141 121.181 43.5599 121.181 41.5573C121.181 39.4756 121.833 37.8814 123.135 36.7747C124.437 35.6416 126.325 35.0751 128.797 35.0751C131.561 35.0751 133.94 35.6416 135.933 36.7747V35.3518C135.933 33.639 135.442 32.3742 134.458 31.5573C133.475 30.7141 131.92 30.2925 129.793 30.2925C127.534 30.2925 125.448 30.7141 123.534 31.5573V28.9881C124.331 28.6456 125.341 28.3689 126.564 28.1581C127.787 27.9473 128.956 27.8419 130.072 27.8419C133.103 27.8419 135.349 28.527 136.81 29.8972C138.272 31.2411 139.003 33.112 139.003 35.5099V47.4071H136.133V44.9565C134.458 46.9855 131.973 48 128.677 48ZM129.435 45.5099C130.87 45.5099 132.159 45.2332 133.302 44.6798C134.471 44.1001 135.349 43.2964 135.933 42.2688V39.2253C134.897 38.6192 133.86 38.1845 132.823 37.9209C131.813 37.6311 130.67 37.4862 129.395 37.4862C127.587 37.4862 126.271 37.8287 125.448 38.5138C124.65 39.1726 124.251 40.1871 124.251 41.5573C124.251 44.1924 125.979 45.5099 129.435 45.5099Z" fill="var(--primary-700, #55382B)"/>
<path d="M144.367 28.4348H147.357V31.2806C148.287 30.0949 149.417 29.2253 150.746 28.6719C152.102 28.1186 153.537 27.8419 155.052 27.8419C157.577 27.8419 159.451 28.5007 160.674 29.8182C161.923 31.1357 162.547 32.9012 162.547 35.1146V47.4071H159.477V35.3913C159.477 33.7576 159.079 32.5059 158.281 31.6364C157.484 30.7404 156.208 30.2925 154.454 30.2925C151.503 30.2925 149.164 31.61 147.437 34.2451V47.4071H144.367V28.4348Z" fill="var(--primary-700, #55382B)"/>
<path d="M174.581 48C173.332 48 171.99 47.8155 170.554 47.4466C169.119 47.1041 168.003 46.6693 167.205 46.1423V43.5731C168.215 44.1792 169.371 44.6667 170.674 45.0356C172.003 45.4045 173.279 45.5889 174.501 45.5889C176.149 45.5889 177.332 45.365 178.05 44.917C178.794 44.4427 179.166 43.7444 179.166 42.8221C179.166 42.1107 179.007 41.5573 178.688 41.1621C178.369 40.7404 177.837 40.3715 177.093 40.0553C176.349 39.7391 175.192 39.3702 173.624 38.9486C172.083 38.527 170.847 38.0922 169.916 37.6443C169.013 37.17 168.321 36.5771 167.843 35.8656C167.365 35.1541 167.125 34.2451 167.125 33.1383C167.125 31.4256 167.816 30.1212 169.199 29.2253C170.607 28.303 172.468 27.8419 174.78 27.8419C176.03 27.8419 177.199 27.9605 178.289 28.1976C179.405 28.4084 180.336 28.7115 181.08 29.1067V31.6759C180.309 31.2543 179.379 30.9249 178.289 30.6877C177.199 30.4242 176.07 30.2925 174.9 30.2925C173.358 30.2925 172.189 30.5165 171.391 30.9644C170.594 31.4124 170.195 32.137 170.195 33.1383C170.195 33.8235 170.328 34.3505 170.594 34.7194C170.886 35.0883 171.405 35.4308 172.149 35.747C172.92 36.0369 174.142 36.4058 175.817 36.8538C178.209 37.5125 179.87 38.2899 180.801 39.1858C181.758 40.0553 182.236 41.2675 182.236 42.8221C182.236 44.4295 181.598 45.6943 180.322 46.6166C179.073 47.5389 177.159 48 174.581 48Z" fill="var(--primary-700, #55382B)"/>
<path d="M188.397 30.8063H185.406V28.4348H188.397V24.2451C188.397 22.1897 188.955 20.635 190.071 19.581C191.214 18.527 192.742 18 194.656 18C195.666 18 196.61 18.1318 197.487 18.3953V20.9644C196.743 20.6219 195.972 20.4506 195.175 20.4506C193.899 20.4506 192.955 20.78 192.344 21.4387C191.759 22.0711 191.467 23.0593 191.467 24.4032V28.4348H196.331V30.8063H191.467V47.4071H188.397V30.8063Z" fill="var(--primary-700, #55382B)"/>
<path d="M210.954 48C207.472 48 204.748 47.1173 202.781 45.3518C200.84 43.5863 199.87 41.1225 199.87 37.9605C199.87 34.8511 200.747 32.3874 202.502 30.5692C204.256 28.751 206.754 27.8419 209.997 27.8419C212.177 27.8419 214.024 28.2635 215.539 29.1067C217.054 29.9236 218.197 31.0567 218.968 32.5059C219.739 33.9552 220.124 35.6021 220.124 37.4466V39.1067H202.741C202.847 41.2675 203.645 42.888 205.133 43.9684C206.648 45.0487 208.695 45.5889 211.273 45.5889C212.522 45.5889 213.745 45.4835 214.941 45.2727C216.164 45.0356 217.253 44.7194 218.21 44.3241V46.8933C217.413 47.2095 216.323 47.473 214.941 47.6838C213.585 47.8946 212.256 48 210.954 48ZM217.253 36.9328C217.2 34.8775 216.562 33.2569 215.34 32.0711C214.117 30.8854 212.323 30.2925 209.957 30.2925C207.645 30.2925 205.877 30.9117 204.655 32.1502C203.432 33.3623 202.794 34.9565 202.741 36.9328H217.253Z" fill="var(--primary-700, #55382B)"/>
<path d="M224.924 28.4348H227.915V32.1502C229.456 29.6733 232.34 28.4348 236.566 28.4348V30.8854C231.942 30.8854 229.084 32.4005 227.994 35.4308V47.4071H224.924V28.4348Z" fill="var(--primary-700, #55382B)"/>
<path d="M243.129 25.5099C242.199 25.5099 241.415 25.2068 240.777 24.6008C240.139 23.9947 239.82 23.2306 239.82 22.3083C239.82 21.4124 240.139 20.6614 240.777 20.0553C241.415 19.4229 242.199 19.1067 243.129 19.1067C244.059 19.1067 244.844 19.4229 245.481 20.0553C246.119 20.6614 246.438 21.4124 246.438 22.3083C246.438 23.2306 246.119 23.9947 245.481 24.6008C244.844 25.2068 244.059 25.5099 243.129 25.5099ZM240.099 28.4348H246.159V47.4071H240.099V28.4348Z" fill="var(--primary-700, #55382B)"/>
<path d="M250.566 28.4348H256.387V30.7668C257.264 29.7918 258.301 29.0672 259.497 28.5929C260.72 28.0922 261.996 27.8419 263.325 27.8419C265.929 27.8419 267.87 28.5402 269.146 29.9368C270.448 31.307 271.099 33.1647 271.099 35.5099V47.4071H265.079V36.1818C265.079 33.7312 263.936 32.5059 261.65 32.5059C260.64 32.5059 259.696 32.7563 258.819 33.2569C257.942 33.7312 257.198 34.4427 256.586 35.3913V47.4071H250.566V28.4348Z" fill="var(--primary-700, #55382B)"/>
<path d="M284.425 48C282.458 48 280.704 47.5916 279.162 46.7747C277.647 45.9315 276.451 44.7589 275.574 43.2569C274.723 41.7286 274.298 39.9631 274.298 37.9605C274.298 35.9842 274.723 34.2319 275.574 32.7036C276.424 31.1752 277.621 29.9895 279.162 29.1462C280.704 28.2767 282.458 27.8419 284.425 27.8419C285.86 27.8419 287.176 28.0395 288.372 28.4348C289.568 28.83 290.578 29.3966 291.402 30.1344V18.1976H297.423V47.4071H291.602V45.3518C290.618 46.274 289.542 46.946 288.372 47.3676C287.229 47.7892 285.914 48 284.425 48ZM285.98 43.3755C287.229 43.3755 288.332 43.0461 289.289 42.3874C290.273 41.7286 290.977 40.8458 291.402 39.7391V36.1423C291.03 35.0619 290.339 34.1924 289.329 33.5336C288.346 32.8485 287.229 32.5059 285.98 32.5059C284.359 32.5059 283.03 33.0066 281.993 34.0079C280.983 35.0092 280.478 36.3267 280.478 37.9605C280.478 39.5942 280.983 40.9117 281.993 41.913C283.03 42.888 284.359 43.3755 285.98 43.3755Z" fill="var(--primary-700, #55382B)"/>
<path d="M312.615 48C308.947 48 306.063 47.1304 303.963 45.3913C301.863 43.6258 300.813 41.1621 300.813 38C300.813 34.8643 301.744 32.3874 303.604 30.5692C305.491 28.751 308.176 27.8419 311.658 27.8419C313.944 27.8419 315.884 28.2635 317.479 29.1067C319.074 29.9499 320.283 31.1225 321.107 32.6245C321.931 34.1001 322.343 35.7734 322.343 37.6443V40.0553H306.555C306.98 42.4796 309.266 43.6917 313.412 43.6917C314.635 43.6917 315.897 43.5863 317.2 43.3755C318.502 43.1647 319.632 42.8748 320.589 42.5059V46.6957C319.658 47.0909 318.462 47.4071 317 47.6443C315.539 47.8814 314.077 48 312.615 48ZM316.642 36.1818C316.562 34.917 316.083 33.942 315.206 33.2569C314.329 32.5455 313.12 32.1897 311.578 32.1897C310.063 32.1897 308.867 32.5455 307.99 33.2569C307.113 33.9684 306.634 34.9433 306.555 36.1818H316.642Z" fill="var(--primary-700, #55382B)"/>
<path d="M333.089 37.6047L325.434 28.4348H332.172L336.438 33.5731L340.744 28.4348H347.482L339.787 37.6047L348 47.4071H341.342L336.438 41.5968L331.574 47.4071H324.875L333.089 37.6047Z" fill="var(--primary-700, #55382B)"/>
</svg>
