<?xml-stylesheet type="text/css" href="/css/svg.css" ?>
<svg width="240" height="36" viewBox="0 0 240 36" fill="none" xmlns="http://www.w3.org/2000/svg">
    <path d="M38.7708 27C38.7708 22.0294 42.4666 18 47.0257 18C51.5847 18 55.2806 22.0294 55.2806 27C55.2806 31.9706 51.5847 36 47.0257 36H38.7708V27Z" fill="#EAE0DB"/>
    <path fill-rule="evenodd" clip-rule="evenodd" d="M30.5158 33V18C30.5158 9.71573 24.3561 3 16.7576 3C9.15919 3 2.99944 9.71573 2.99944 18C2.99944 26.2843 9.15919 33 16.7576 33H30.5158ZM16.7576 0C7.63951 0 0.247803 8.05888 0.247803 18C0.247803 27.9411 7.63951 36 16.7576 36H33.2675V18C33.2675 8.05888 25.8758 0 16.7576 0Z" fill="var(--secondary-400, #EB7833)"/>
    <path d="M69.5145 36C68.2711 36 67.302 35.6047 66.6072 34.8142C65.9307 34.0237 65.5924 32.8972 65.5924 31.4348V23.1047H63.5354V21.3261H65.5924V17.0573H67.7043V21.3261H71.023V23.1047H67.7043V31.4941C67.7043 32.4822 67.8871 33.1838 68.2528 33.5988C68.6185 33.9941 69.2859 34.1917 70.255 34.1917C70.7304 34.1917 71.2332 34.0731 71.7635 33.836V35.7036C71.1601 35.9012 70.4104 36 69.5145 36Z" fill="var(--primary-50, #F5F0ED)"/>
    <path d="M74.6497 21.3261H76.7068V24.1126C77.7673 22.2549 79.7512 21.3261 82.6584 21.3261V23.164C79.4769 23.164 77.5113 24.3004 76.7616 26.5731V35.5553H74.6497V21.3261Z" fill="var(--primary-50, #F5F0ED)"/>
    <path d="M88.7658 36C87.1751 36 85.9134 35.5751 84.9809 34.7253C84.0667 33.8557 83.6096 32.67 83.6096 31.168C83.6096 29.6067 84.0575 28.4111 84.9535 27.581C85.8494 26.7312 87.1476 26.3063 88.8481 26.3063C90.7497 26.3063 92.3862 26.7312 93.7575 27.581V26.5138C93.7575 25.2292 93.4193 24.2806 92.7427 23.668C92.0662 23.0356 90.9966 22.7194 89.5338 22.7194C87.9796 22.7194 86.5443 23.0356 85.2278 23.668V21.7411C85.7763 21.4842 86.4711 21.2767 87.3122 21.1186C88.1533 20.9605 88.9578 20.8814 89.7258 20.8814C91.8102 20.8814 93.3553 21.3953 94.3609 22.4229C95.3666 23.4308 95.8694 24.834 95.8694 26.6324V35.5553H93.8947V33.7174C92.7427 35.2391 91.0331 36 88.7658 36ZM89.2869 34.1324C90.2743 34.1324 91.1611 33.9249 91.9474 33.5099C92.7519 33.0751 93.3553 32.4723 93.7575 31.7016V29.419C93.0444 28.9644 92.3313 28.6383 91.6182 28.4407C90.9234 28.2233 90.1372 28.1146 89.2595 28.1146C88.0162 28.1146 87.1111 28.3715 86.5443 28.8854C85.9957 29.3794 85.7214 30.1403 85.7214 31.168C85.7214 33.1443 86.9099 34.1324 89.2869 34.1324Z" fill="var(--primary-50, #F5F0ED)"/>
    <path d="M99.559 21.3261H101.616V23.4605C102.256 22.5711 103.033 21.919 103.947 21.504C104.88 21.0889 105.867 20.8814 106.909 20.8814C108.646 20.8814 109.936 21.3755 110.777 22.3636C111.636 23.3518 112.066 24.6759 112.066 26.336V35.5553H109.954V26.5435C109.954 25.3182 109.68 24.3794 109.131 23.7273C108.582 23.0553 107.705 22.7194 106.498 22.7194C104.468 22.7194 102.859 23.7075 101.671 25.6838V35.5553H99.559V21.3261Z" fill="var(--primary-50, #F5F0ED)"/>
    <path d="M120.344 36C119.484 36 118.561 35.8617 117.574 35.585C116.586 35.3281 115.818 35.002 115.27 34.6067V32.6798C115.965 33.1344 116.76 33.5 117.656 33.7767C118.57 34.0534 119.448 34.1917 120.289 34.1917C121.422 34.1917 122.236 34.0237 122.73 33.6877C123.242 33.332 123.498 32.8083 123.498 32.1166C123.498 31.583 123.388 31.168 123.169 30.8715C122.949 30.5553 122.584 30.2787 122.072 30.0415C121.56 29.8043 120.764 29.5277 119.685 29.2115C118.625 28.8953 117.775 28.5692 117.135 28.2332C116.513 27.8775 116.038 27.4328 115.709 26.8992C115.379 26.3656 115.215 25.6838 115.215 24.8538C115.215 23.5692 115.69 22.5909 116.641 21.919C117.61 21.2273 118.89 20.8814 120.481 20.8814C121.34 20.8814 122.145 20.9704 122.894 21.1482C123.662 21.3063 124.302 21.5336 124.814 21.83V23.7569C124.284 23.4407 123.644 23.1937 122.894 23.0158C122.145 22.8182 121.368 22.7194 120.563 22.7194C119.503 22.7194 118.698 22.8874 118.15 23.2233C117.601 23.5593 117.327 24.1028 117.327 24.8538C117.327 25.3676 117.418 25.7628 117.601 26.0395C117.802 26.3162 118.159 26.5731 118.671 26.8103C119.201 27.0277 120.042 27.3043 121.194 27.6403C122.84 28.1344 123.982 28.7174 124.622 29.3893C125.281 30.0415 125.61 30.9506 125.61 32.1166C125.61 33.3221 125.171 34.2708 124.293 34.9625C123.434 35.6541 122.117 36 120.344 36Z" fill="var(--primary-50, #F5F0ED)"/>
    <path d="M129.848 23.1047H127.791V21.3261H129.848V18.1838C129.848 16.6423 130.232 15.4763 130.999 14.6858C131.786 13.8953 132.837 13.5 134.154 13.5C134.848 13.5 135.498 13.5988 136.101 13.7964V15.7233C135.589 15.4664 135.059 15.3379 134.51 15.3379C133.632 15.3379 132.983 15.585 132.563 16.0791C132.161 16.5534 131.959 17.2945 131.959 18.3024V21.3261H135.306V23.1047H131.959V35.5553H129.848V23.1047Z" fill="var(--primary-50, #F5F0ED)"/>
    <path d="M145.365 36C142.97 36 141.096 35.3379 139.742 34.0138C138.408 32.6897 137.74 30.8419 137.74 28.4704C137.74 26.1383 138.344 24.2905 139.55 22.9269C140.757 21.5632 142.476 20.8814 144.707 20.8814C146.206 20.8814 147.477 21.1976 148.519 21.83C149.561 22.4427 150.348 23.2925 150.878 24.3794C151.408 25.4664 151.673 26.7016 151.673 28.085V29.33H139.715C139.788 30.9506 140.337 32.166 141.361 32.9763C142.403 33.7866 143.811 34.1917 145.584 34.1917C146.444 34.1917 147.285 34.1126 148.108 33.9545C148.949 33.7767 149.698 33.5395 150.357 33.2431V35.17C149.808 35.4071 149.058 35.6047 148.108 35.7628C147.175 35.9209 146.261 36 145.365 36ZM149.698 27.6996C149.662 26.1581 149.223 24.9427 148.382 24.0534C147.541 23.164 146.307 22.7194 144.679 22.7194C143.089 22.7194 141.873 23.1838 141.032 24.1126C140.19 25.0217 139.752 26.2174 139.715 27.6996H149.698Z" fill="var(--primary-50, #F5F0ED)"/>
    <path d="M154.975 21.3261H157.032V24.1126C158.093 22.2549 160.077 21.3261 162.984 21.3261V23.164C159.803 23.164 157.837 24.3004 157.087 26.5731V35.5553H154.975V21.3261Z" fill="var(--primary-50, #F5F0ED)"/>
    <path d="M167.499 19.1324C166.859 19.1324 166.319 18.9051 165.88 18.4506C165.442 17.996 165.222 17.4229 165.222 16.7312C165.222 16.0593 165.442 15.496 165.88 15.0415C166.319 14.5672 166.859 14.33 167.499 14.33C168.139 14.33 168.678 14.5672 169.117 15.0415C169.556 15.496 169.775 16.0593 169.775 16.7312C169.775 17.4229 169.556 17.996 169.117 18.4506C168.678 18.9051 168.139 19.1324 167.499 19.1324ZM165.414 21.3261H169.583V35.5553H165.414V21.3261Z" fill="var(--primary-50, #F5F0ED)"/>
    <path d="M172.615 21.3261H176.619V23.0751C177.222 22.3439 177.935 21.8004 178.758 21.4447C179.599 21.0692 180.477 20.8814 181.391 20.8814C183.183 20.8814 184.518 21.4051 185.395 22.4526C186.291 23.4802 186.739 24.8735 186.739 26.6324V35.5553H182.598V27.1364C182.598 25.2984 181.812 24.3794 180.239 24.3794C179.544 24.3794 178.895 24.5672 178.292 24.9427C177.689 25.2984 177.177 25.832 176.756 26.5435V35.5553H172.615V21.3261Z" fill="var(--primary-50, #F5F0ED)"/>
    <path d="M195.906 36C194.553 36 193.347 35.6937 192.286 35.081C191.244 34.4486 190.421 33.5692 189.818 32.4427C189.233 31.2964 188.94 29.9723 188.94 28.4704C188.94 26.9881 189.233 25.6739 189.818 24.5277C190.403 23.3814 191.226 22.4921 192.286 21.8597C193.347 21.2075 194.553 20.8814 195.906 20.8814C196.894 20.8814 197.799 21.0296 198.622 21.3261C199.445 21.6225 200.139 22.0474 200.706 22.6008V13.6482H204.848V35.5553H200.843V34.0138C200.167 34.7055 199.426 35.2095 198.622 35.5257C197.835 35.8419 196.93 36 195.906 36ZM196.976 32.5316C197.835 32.5316 198.594 32.2846 199.253 31.7905C199.929 31.2964 200.414 30.6344 200.706 29.8043V27.1067C200.45 26.2964 199.975 25.6443 199.28 25.1502C198.603 24.6364 197.835 24.3794 196.976 24.3794C195.861 24.3794 194.947 24.7549 194.233 25.5059C193.539 26.2569 193.191 27.2451 193.191 28.4704C193.191 29.6957 193.539 30.6838 194.233 31.4348C194.947 32.166 195.861 32.5316 196.976 32.5316Z" fill="var(--primary-50, #F5F0ED)"/>
    <path d="M215.298 36C212.775 36 210.791 35.3478 209.347 34.0435C207.902 32.7194 207.18 30.8715 207.18 28.5C207.18 26.1482 207.82 24.2905 209.1 22.9269C210.398 21.5632 212.245 20.8814 214.64 20.8814C216.213 20.8814 217.547 21.1976 218.644 21.83C219.742 22.4624 220.573 23.3419 221.14 24.4684C221.707 25.5751 221.991 26.83 221.991 28.2332V30.0415H211.129C211.422 31.8597 212.995 32.7688 215.847 32.7688C216.688 32.7688 217.557 32.6897 218.452 32.5316C219.348 32.3735 220.126 32.1561 220.784 31.8794V35.0217C220.144 35.3182 219.321 35.5553 218.315 35.7332C217.31 35.9111 216.304 36 215.298 36ZM218.068 27.1364C218.014 26.1877 217.685 25.4565 217.081 24.9427C216.478 24.4091 215.646 24.1423 214.585 24.1423C213.543 24.1423 212.72 24.4091 212.117 24.9427C211.513 25.4763 211.184 26.2075 211.129 27.1364H218.068Z" fill="var(--primary-50, #F5F0ED)"/>
    <path d="M229.383 28.2036L224.117 21.3261H228.752L231.686 25.1798L234.649 21.3261H239.284L233.99 28.2036L239.64 35.5553H235.06L231.686 31.1976L228.34 35.5553H223.733L229.383 28.2036Z" fill="var(--primary-50, #F5F0ED)"/>
</svg>
    