<svg width="339" height="300" viewBox="0 0 339 300" fill="none" xmlns="http://www.w3.org/2000/svg">
<g clip-path="url(#clip0_1493_2967)">
<path d="M167.442 160.901H65.6521C62.9656 160.898 60.39 159.83 58.4903 157.93C56.5906 156.03 55.5221 153.455 55.519 150.768V97.9534C55.5221 95.2668 56.5906 92.6912 58.4903 90.7916C60.39 88.8919 62.9656 87.8233 65.6521 87.8203H167.442C170.129 87.8233 172.704 88.8919 174.604 90.7916C176.504 92.6912 177.572 95.2668 177.575 97.9534V150.768C177.572 153.455 176.504 156.03 174.604 157.93C172.704 159.83 170.129 160.898 167.442 160.901V160.901Z" fill="#E5D4CC"/>
<path d="M301.476 160.901H199.686C197 160.898 194.424 159.83 192.524 157.93C190.625 156.03 189.556 153.455 189.553 150.768V97.9534C189.556 95.2668 190.625 92.6912 192.524 90.7916C194.424 88.8919 197 87.8233 199.686 87.8203H301.476C304.163 87.8233 306.738 88.8919 308.638 90.7916C310.537 92.6912 311.606 95.2668 311.609 97.9534V150.768C311.606 153.455 310.537 156.03 308.638 157.93C306.738 159.83 304.163 160.898 301.476 160.901V160.901Z" fill="#E5D4CC"/>
<path d="M177.575 248.721H55.519V181.474C55.5221 178.787 56.5906 176.212 58.4903 174.312C60.39 172.412 62.9656 171.344 65.6521 171.341H167.442C170.129 171.344 172.704 172.412 174.604 174.312C176.504 176.212 177.572 178.787 177.575 181.474V248.721Z" fill="#F2F2F2"/>
<path d="M311.609 248.721H189.553V181.474C189.556 178.787 190.625 176.212 192.524 174.312C194.424 172.412 197 171.344 199.686 171.341H301.476C304.163 171.344 306.738 172.412 308.638 174.312C310.537 176.212 311.606 178.787 311.609 181.474V248.721Z" fill="#F2F2F2"/>
<path d="M301.476 77.3797H199.686C197 77.3767 194.424 76.3081 192.524 74.4085C190.625 72.5088 189.556 69.9332 189.553 67.2467V10.1331C189.556 7.44654 190.625 4.87092 192.524 2.97126C194.424 1.0716 197 0.00303632 199.686 0H301.476C304.163 0.00303632 306.738 1.0716 308.638 2.97126C310.537 4.87092 311.606 7.44654 311.609 10.1331V67.2467C311.606 69.9332 310.537 72.5088 308.638 74.4085C306.738 76.3081 304.163 77.3767 301.476 77.3797V77.3797Z" fill="#E5D4CC"/>
<path d="M308.231 251.791H61.3532C59.8059 251.791 58.3219 251.177 57.2278 250.083C56.1337 248.989 55.519 247.505 55.519 245.957C55.519 244.41 56.1337 242.926 57.2278 241.832C58.3219 240.738 59.8059 240.123 61.3532 240.123H308.231C309.779 240.123 311.263 240.738 312.357 241.832C313.451 242.926 314.066 244.41 314.066 245.957C314.066 247.505 313.451 248.989 312.357 250.083C311.263 251.177 309.779 251.791 308.231 251.791V251.791Z" fill="#E5D4CC"/>
<path d="M174.045 245.65H73.3286V222.313C73.3286 208.957 78.6342 196.149 88.0782 186.705C97.5222 177.261 110.331 171.955 123.687 171.955C137.043 171.955 149.851 177.261 159.295 186.705C168.74 196.149 174.045 208.957 174.045 222.313V245.65Z" fill="#E5D4CC"/>
<path d="M294.413 245.65H193.697V222.313C193.697 208.957 199.003 196.149 208.447 186.705C217.891 177.261 230.699 171.955 244.055 171.955C257.411 171.955 270.22 177.261 279.664 186.705C289.108 196.149 294.413 208.957 294.413 222.313V245.65Z" fill="#E5D4CC"/>
<path d="M239.449 299.386H247.433V247.799H239.449V299.386Z" fill="#E5D4CC"/>
<path d="M216.727 299.106C216.727 299.968 228.825 299.439 243.748 299.439C258.672 299.439 270.77 299.968 270.77 299.106C270.77 298.243 258.672 291.402 243.748 291.402C228.825 291.402 216.727 298.243 216.727 299.106Z" fill="#E5D4CC"/>
<path d="M119.081 299.386H127.065V247.799H119.081V299.386Z" fill="#E5D4CC"/>
<path d="M96.3584 299.106C96.3584 299.968 108.456 299.439 123.38 299.439C138.303 299.439 150.401 299.968 150.401 299.106C150.401 298.243 138.303 291.402 123.38 291.402C108.456 291.402 96.3584 298.243 96.3584 299.106Z" fill="#E5D4CC"/>
<path d="M158.955 292.353H166.484L170.066 263.312H158.954L158.955 292.353Z" fill="#B27F67"/>
<path d="M181.004 299.344L157.342 299.345L157.341 290.202L171.862 290.202C173.062 290.202 174.251 290.438 175.36 290.897C176.47 291.357 177.477 292.03 178.326 292.879C179.175 293.728 179.849 294.736 180.308 295.845C180.768 296.954 181.004 298.143 181.004 299.344V299.344L181.004 299.344Z" fill="#110B09"/>
<path d="M170.708 288.152L177.892 285.897L172.615 257.116L162.013 260.443L170.708 288.152Z" fill="#B27F67"/>
<path d="M193.839 288.22L171.262 295.305L168.524 286.582L182.379 282.234C184.692 281.508 187.199 281.731 189.348 282.853C191.498 283.976 193.113 285.906 193.839 288.22V288.22Z" fill="#110B09"/>
<path d="M165.671 274.785L151.898 238.631C148.808 239.357 122.895 245.091 114.216 235.85C111.241 232.683 110.661 228.094 112.491 222.212L117.556 215.847L117.714 215.855C119.629 215.956 164.655 218.48 167.741 232.061C170.344 243.511 175.096 264.859 176.491 271.129C176.632 271.778 176.536 272.457 176.218 273.042C175.901 273.626 175.385 274.077 174.763 274.312L169.224 276.389C168.915 276.505 168.588 276.565 168.258 276.565C167.698 276.565 167.15 276.395 166.688 276.077C166.226 275.759 165.871 275.309 165.671 274.785Z" fill="#110B09"/>
<path d="M157.687 279.084L143.914 242.93C140.824 243.656 114.911 249.389 106.232 240.149C103.258 236.982 102.678 232.393 104.508 226.51L109.573 220.146L109.73 220.154C111.645 220.255 156.671 222.778 159.758 236.36C162.36 247.81 167.113 269.157 168.507 275.428C168.649 276.077 168.552 276.756 168.235 277.34C167.917 277.925 167.401 278.376 166.779 278.611L161.24 280.688C160.931 280.804 160.604 280.863 160.275 280.863C159.714 280.863 159.167 280.693 158.705 280.376C158.243 280.058 157.888 279.608 157.687 279.084V279.084Z" fill="#110B09"/>
<path d="M145.298 208.94C143.257 208.939 141.251 208.408 139.476 207.4C137.702 206.391 136.219 204.938 135.175 203.185L130.801 195.775L141.197 190.092L145.612 196.145L175.565 192.989C175.711 192.726 175.875 192.472 176.056 192.231V192.231C176.63 191.475 177.358 190.848 178.191 190.392C179.024 189.935 179.944 189.659 180.891 189.582C181.842 189.501 182.799 189.623 183.699 189.942C184.598 190.262 185.419 190.769 186.106 191.432C187.208 192.488 187.92 193.886 188.127 195.398C188.335 196.91 188.025 198.448 187.249 199.762C186.763 200.58 186.109 201.287 185.331 201.836C184.553 202.384 183.668 202.762 182.734 202.945C181.8 203.128 180.837 203.111 179.91 202.896C178.983 202.681 178.111 202.272 177.353 201.697C177.177 201.562 177.008 201.419 176.848 201.267L148.159 208.581C147.224 208.82 146.263 208.94 145.298 208.94V208.94Z" fill="#C39B89"/>
<path d="M104.313 228.419C103.899 228.12 103.575 227.713 103.378 227.241C103.181 226.77 103.118 226.253 103.196 225.748C104.905 214.484 102.939 198.347 100.989 186.793C100.589 184.449 100.745 182.043 101.442 179.77C102.14 177.497 103.36 175.418 105.005 173.701C106.65 171.984 108.675 170.676 110.916 169.882C113.158 169.089 115.554 168.831 117.913 169.129C119.966 169.401 121.999 169.801 124.001 170.33V170.33C127.326 171.167 130.268 173.111 132.342 175.842C134.416 178.573 135.499 181.928 135.413 185.356C135.121 196.505 137.385 210.416 138.372 215.879C138.439 216.254 138.429 216.639 138.34 217.01C138.252 217.381 138.089 217.73 137.86 218.035C137.635 218.336 137.35 218.588 137.023 218.773C136.696 218.958 136.333 219.073 135.959 219.109C125.023 220.225 113.229 225.559 107.172 228.638C106.783 228.839 106.351 228.945 105.913 228.946C105.338 228.944 104.777 228.76 104.313 228.419V228.419Z" fill="#B27F67"/>
<path d="M133.835 199.364C133.497 199.232 133.188 199.033 132.928 198.78C132.667 198.528 132.459 198.226 132.316 197.892L126.216 183.803C125.847 182.951 125.649 182.036 125.634 181.108C125.619 180.18 125.787 179.258 126.128 178.395C126.469 177.532 126.977 176.745 127.622 176.079C128.268 175.412 129.038 174.879 129.89 174.511C130.742 174.142 131.658 173.945 132.585 173.931C133.513 173.916 134.435 174.085 135.297 174.427C136.16 174.768 136.947 175.277 137.613 175.923C138.279 176.569 138.811 177.34 139.179 178.192L145.278 192.282C145.568 192.954 145.58 193.715 145.31 194.396C145.041 195.077 144.512 195.623 143.84 195.915L135.95 199.331C135.617 199.476 135.259 199.554 134.896 199.56C134.533 199.565 134.172 199.499 133.835 199.364Z" fill="#B27F67"/>
<path d="M116.791 164.337C125.121 164.337 131.875 157.584 131.875 149.253C131.875 140.923 125.121 134.17 116.791 134.17C108.461 134.17 101.708 140.923 101.708 149.253C101.708 157.584 108.461 164.337 116.791 164.337Z" fill="#C39B89"/>
<path d="M107.676 162.653C107.462 162.9 107.201 163.101 106.908 163.245C106.616 163.389 106.297 163.473 105.971 163.492C105.645 163.511 105.319 163.464 105.012 163.354C104.704 163.245 104.422 163.075 104.181 162.854C100.818 160.132 98.1505 156.648 96.399 152.691C94.4381 148.017 94.1507 142.313 96.3824 137.932C98.269 134.228 101.656 131.871 105.037 129.944C106.333 129.127 107.753 128.527 109.242 128.166C109.994 127.996 110.774 127.984 111.53 128.133C112.287 128.282 113.004 128.587 113.636 129.03C114.305 129.54 114.824 130.222 115.135 131.004C115.447 131.786 115.539 132.638 115.403 133.469C116.949 131.431 119.034 129.867 121.423 128.951C122.888 128.32 124.525 128.21 126.062 128.64C128.233 129.365 129.84 131.557 130.734 133.913C131.458 135.717 131.723 137.671 131.505 139.602C131.411 140.524 131.129 141.417 130.679 142.227C130.228 143.037 129.617 143.747 128.884 144.313C127.113 145.535 124.831 145.411 122.771 144.87C120.711 144.33 118.712 143.413 116.617 143.157C114.521 142.901 112.199 143.455 110.95 145.325C110.071 146.641 109.864 148.375 109.684 150.028L108.751 158.625C108.685 159.855 108.42 161.066 107.966 162.211C107.89 162.371 107.792 162.519 107.676 162.653V162.653Z" fill="#110B09"/>
<path d="M139.919 224.69C139.022 224.376 138.201 223.878 137.51 223.226C136.818 222.575 136.272 221.785 135.906 220.908C135.822 220.703 135.748 220.495 135.686 220.282L103.553 211.136C102.173 210.737 100.957 209.904 100.087 208.76C99.2177 207.616 98.7402 206.221 98.7256 204.784L98.6472 192.378L110.491 192.695L111.263 200.147L138.739 212.483C138.998 212.328 139.267 212.192 139.545 212.075H139.545C140.557 211.65 141.657 211.479 142.751 211.575C143.844 211.671 144.897 212.031 145.82 212.625C146.743 213.219 147.507 214.029 148.047 214.985C148.586 215.94 148.885 217.013 148.918 218.11C148.951 219.207 148.715 220.295 148.233 221.281C147.751 222.267 147.036 223.121 146.15 223.768C145.264 224.416 144.234 224.839 143.148 224.999C142.063 225.16 140.954 225.053 139.919 224.69V224.69Z" fill="#C39B89"/>
<path d="M98.8316 197.825C98.5904 197.553 98.4054 197.237 98.2873 196.893C98.1693 196.55 98.1205 196.186 98.1439 195.824L99.0859 180.5C99.1414 179.573 99.379 178.666 99.7852 177.832C100.191 176.997 100.758 176.25 101.453 175.635C102.148 175.019 102.958 174.547 103.836 174.244C104.714 173.942 105.643 173.816 106.569 173.873C107.496 173.93 108.402 174.169 109.236 174.577C110.071 174.984 110.816 175.552 111.431 176.248C112.045 176.945 112.516 177.755 112.817 178.633C113.118 179.512 113.242 180.441 113.184 181.367L112.242 196.691C112.196 197.423 111.862 198.106 111.313 198.591C110.764 199.076 110.045 199.324 109.314 199.28L100.732 198.752C100.37 198.731 100.015 198.638 99.6891 198.479C99.3628 198.32 99.0713 198.097 98.8316 197.825V197.825Z" fill="#B27F67"/>
<path d="M182.684 205.425H174.003C173.725 205.426 173.456 205.322 173.25 205.135C173.043 204.948 172.914 204.691 172.888 204.413L171.151 186.603H185.537L183.8 204.413C183.773 204.69 183.644 204.948 183.438 205.135C183.232 205.322 182.963 205.426 182.684 205.425V205.425Z" fill="#D4B8AA"/>
<path d="M185.514 188.844H171.174C170.877 188.843 170.592 188.725 170.382 188.515C170.172 188.305 170.054 188.02 170.053 187.723V185.034C170.054 184.737 170.172 184.453 170.382 184.243C170.592 184.033 170.877 183.914 171.174 183.914H185.514C185.811 183.914 186.096 184.033 186.306 184.243C186.516 184.453 186.634 184.737 186.635 185.034V187.723C186.634 188.02 186.516 188.305 186.306 188.515C186.096 188.725 185.811 188.843 185.514 188.844Z" fill="#110B09"/>
<path d="M52.1578 189.457H34.6471C34.131 189.457 33.6362 189.662 33.2713 190.027C32.9064 190.392 32.7014 190.887 32.7014 191.403V228.37H35.6199V194.321C35.6199 193.805 35.8249 193.31 36.1897 192.945C36.5546 192.58 37.0495 192.375 37.5655 192.375H50.2121C50.7281 192.375 51.223 192.58 51.5879 192.945C51.9528 193.31 52.1578 193.805 52.1578 194.321V228.37H55.0762V191.403C55.0762 190.887 54.8712 190.392 54.5064 190.027C54.1415 189.662 53.6466 189.457 53.1306 189.457H52.1578Z" fill="#FF701A"/>
<path d="M63.8315 299.386H22.0004C19.8081 299.383 17.7063 298.511 16.1561 296.961C14.6059 295.411 13.7339 293.309 13.7314 291.117V229.829C13.7339 227.637 14.6059 225.535 16.1561 223.985C17.7063 222.435 19.8081 221.563 22.0004 221.561H63.8315C66.0238 221.563 68.1256 222.435 69.6758 223.985C71.226 225.535 72.098 227.637 72.1004 229.829V291.117C72.098 293.309 71.226 295.411 69.6758 296.961C68.1256 298.511 66.0238 299.383 63.8315 299.386V299.386Z" fill="#FF701A"/>
<path d="M14.4936 272.562C11.6502 272.562 10.116 266.673 10.116 261.132C10.116 255.59 11.6502 249.701 14.4936 249.701C17.337 249.701 18.8713 255.59 18.8713 261.132C18.8713 266.673 17.337 272.562 14.4936 272.562ZM14.4936 250.674C12.8831 250.674 11.0888 254.969 11.0888 261.132C11.0888 267.295 12.8831 271.59 14.4936 271.59C16.1041 271.59 17.8985 267.295 17.8985 261.132C17.8985 254.969 16.1041 250.674 14.4936 250.674Z" fill="#FF701A"/>
<path d="M60.9131 262.905H53.1305C52.4857 262.904 51.8676 262.648 51.4116 262.192C50.9557 261.736 50.6992 261.118 50.6985 260.473V254.636C50.6992 253.991 50.9557 253.373 51.4116 252.917C51.8676 252.461 52.4857 252.205 53.1305 252.204H60.9131C61.5579 252.205 62.176 252.461 62.6319 252.917C63.0879 253.373 63.3443 253.991 63.3451 254.636V260.473C63.3443 261.118 63.0879 261.736 62.6319 262.192C62.176 262.648 61.5579 262.904 60.9131 262.905V262.905Z" fill="white"/>
<path d="M63.3451 295.265H18.8713C18.6133 295.265 18.3658 295.163 18.1834 294.98C18.0009 294.798 17.8985 294.55 17.8984 294.292V226.425C17.8984 226.167 18.0009 225.92 18.1834 225.737C18.3658 225.555 18.6133 225.452 18.8713 225.452H63.3451C63.6031 225.452 63.8506 225.555 64.033 225.737C64.2154 225.92 64.3179 226.167 64.3179 226.425C64.3179 226.683 64.2154 226.93 64.033 227.113C63.8506 227.295 63.6031 227.398 63.3451 227.398H19.8441V293.319H63.3451C63.6027 293.32 63.8495 293.423 64.0314 293.605C64.2133 293.788 64.3155 294.035 64.3155 294.292C64.3155 294.55 64.2133 294.797 64.0314 294.979C63.8495 295.162 63.6027 295.264 63.3451 295.265V295.265Z" fill="white"/>
<path d="M297.933 113.279C297.361 112.786 296.698 112.409 295.981 112.17C294.378 111.674 292.694 111.491 291.022 111.631C289.795 111.7 288.577 111.87 287.378 112.138L231.391 127.978C230.333 128.275 229.293 128.621 228.272 129.016C224.663 127.603 214.46 123.518 213.341 122.052L208.953 123.335L216.269 134.255C216.084 134.336 215.927 134.471 215.82 134.642C215.713 134.813 215.66 135.013 215.668 135.215C215.676 135.416 215.745 135.611 215.866 135.773C215.987 135.935 216.153 136.057 216.344 136.122C224.779 139.018 237.517 135.173 237.517 135.173L286.437 121.196C286.437 121.196 301.203 116.202 297.933 113.279Z" fill="white"/>
<path d="M270.191 122.036L238.396 130.622L236.517 134.379L270.191 122.036Z" fill="#F2F2F2"/>
<path d="M269.541 53.7363C268.278 53.736 267.029 53.9964 265.871 54.5013C264.714 55.0061 263.673 55.7446 262.813 56.6703C261.789 56.2631 260.681 56.1129 259.585 56.233C258.49 56.353 257.441 56.7397 256.529 57.3591C255.617 57.9785 254.871 58.8118 254.356 59.7861C253.841 60.7604 253.573 61.8461 253.574 62.9482H278.753C278.753 60.5051 277.783 58.162 276.055 56.4344C274.328 54.7069 271.985 53.7363 269.541 53.7363Z" fill="white"/>
<path d="M92.6735 104.094C91.4105 104.093 90.1611 104.354 89.0034 104.859C87.8456 105.364 86.8046 106.102 85.9455 107.028C84.9214 106.62 83.8131 106.47 82.7176 106.59C81.622 106.71 80.5726 107.097 79.661 107.717C78.7494 108.336 78.0035 109.169 77.4884 110.144C76.9733 111.118 76.7048 112.204 76.7063 113.306H101.885C101.885 112.096 101.647 110.898 101.184 109.78C100.721 108.663 100.043 107.647 99.1873 106.792C98.3319 105.936 97.3164 105.258 96.1988 104.795C95.0812 104.332 93.8833 104.094 92.6735 104.094Z" fill="white"/>
</g>
<defs>
<clipPath id="clip0_1493_2967">
<rect width="337.769" height="300" fill="white" transform="translate(0.247803)"/>
</clipPath>
</defs>
</svg>
