<svg width="402" height="300" viewBox="0 0 402 300" fill="none" xmlns="http://www.w3.org/2000/svg">
<g clip-path="url(#clip0_1493_3097)">
<path d="M26.5129 187.93V188.095L26.4509 188.169L26.5129 187.93Z" fill="#CACACA"/>
<path d="M99.7404 212.8C98.4314 213.242 97.1239 213.685 95.8176 214.129V212.8H99.7404Z" fill="white"/>
<path d="M247.471 0.525391H237.8V24.7039H247.471V0.525391Z" fill="#E5D4CC"/>
<path d="M264.165 22.7979V266.169C251.869 264.354 239.746 261.512 227.923 257.675C225.632 256.932 223.354 256.152 221.09 255.334C220.478 255.119 219.867 254.892 219.26 254.669C216.708 253.724 214.176 252.731 211.663 251.692C209.548 250.821 207.447 249.917 205.357 248.979C203.301 248.05 201.258 247.091 199.23 246.101C195.91 244.474 192.625 242.769 189.377 240.985C186.871 239.598 184.397 238.158 181.957 236.666V22.7979H264.165Z" fill="#E5D4CC"/>
<path d="M297.323 22.7979V268.61C293.409 268.614 289.494 268.513 285.58 268.308C284.457 268.25 283.333 268.184 282.21 268.11C276.293 267.718 270.395 267.089 264.517 266.223C264.401 266.206 264.281 266.19 264.166 266.169V22.7979H297.323Z" fill="#D4B8AA"/>
<path d="M209.245 46.9756H196.81V59.4102H209.245V46.9756Z" fill="white"/>
<path d="M229.278 46.9756H216.844V59.4102H229.278V46.9756Z" fill="white"/>
<path d="M249.312 46.9756H236.877V59.4102H249.312V46.9756Z" fill="white"/>
<path d="M209.59 75.2988H197.156V87.7335H209.59V75.2988Z" fill="white"/>
<path d="M229.624 75.2988H217.189V87.7335H229.624V75.2988Z" fill="white"/>
<path d="M249.657 75.2988H237.223V87.7335H249.657V75.2988Z" fill="white"/>
<path d="M209.936 103.622H197.501V116.057H209.936V103.622Z" fill="white"/>
<path d="M229.969 103.622H217.535V116.057H229.969V103.622Z" fill="white"/>
<path d="M250.002 103.622H237.568V116.057H250.002V103.622Z" fill="white"/>
<path d="M210.281 131.945H197.846V144.38H210.281V131.945Z" fill="white"/>
<path d="M230.315 131.945H217.88V144.38H230.315V131.945Z" fill="white"/>
<path d="M250.348 131.945H237.914V144.38H250.348V131.945Z" fill="white"/>
<path d="M210.626 160.27H198.192V172.704H210.626V160.27Z" fill="white"/>
<path d="M230.66 160.27H218.225V172.704H230.66V160.27Z" fill="white"/>
<path d="M250.693 160.27H238.259V172.704H250.693V160.27Z" fill="white"/>
<path d="M210.972 188.593H198.537V201.027H210.972V188.593Z" fill="white"/>
<path d="M231.005 188.593H218.571V201.027H231.005V188.593Z" fill="white"/>
<path d="M251.039 188.593H238.604V201.027H251.039V188.593Z" fill="white"/>
<path d="M211.317 216.916H198.883V229.351H211.317V216.916Z" fill="white"/>
<path d="M231.351 216.916H218.916V229.351H231.351V216.916Z" fill="white"/>
<path d="M251.384 216.916H238.95V229.351H251.384V216.916Z" fill="white"/>
<path d="M211.662 245.238V251.692C209.548 250.821 207.446 249.917 205.357 248.979C203.301 248.05 201.258 247.091 199.229 246.101V245.238H211.662Z" fill="white"/>
<path d="M231.697 245.238V257.675H227.923C225.632 256.932 223.354 256.152 221.09 255.334C220.478 255.12 219.867 254.892 219.26 254.669V245.238L231.697 245.238Z" fill="white"/>
<path d="M251.73 245.239H239.295V257.674H251.73V245.239Z" fill="white"/>
<path d="M360.187 123.656H350.516V137.986H360.187V123.656Z" fill="#E5D4CC"/>
<path d="M367.788 136.756V256.85C345.189 264.741 321.277 268.597 297.323 268.61C293.409 268.614 289.494 268.513 285.58 268.308V136.756H367.788Z" fill="#E5D4CC"/>
<path d="M400.946 136.756V241.522C394.625 245.323 388.053 248.688 381.274 251.593C376.839 253.513 372.344 255.266 367.788 256.85V136.756H400.946Z" fill="#D4B8AA"/>
<path d="M314.248 160.27H301.813V172.704H314.248V160.27Z" fill="white"/>
<path d="M334.282 160.27H321.847V172.704H334.282V160.27Z" fill="white"/>
<path d="M354.316 160.27H341.881V172.704H354.316V160.27Z" fill="white"/>
<path d="M314.594 188.593H302.159V201.027H314.594V188.593Z" fill="white"/>
<path d="M334.628 188.593H322.193V201.027H334.628V188.593Z" fill="white"/>
<path d="M354.661 188.593H342.226V201.027H354.661V188.593Z" fill="white"/>
<path d="M314.939 216.916H302.504V229.351H314.939V216.916Z" fill="white"/>
<path d="M334.973 216.916H322.538V229.351H334.973V216.916Z" fill="white"/>
<path d="M355.006 216.916H342.572V229.351H355.006V216.916Z" fill="white"/>
<path d="M315.285 245.239H302.85V257.674H315.285V245.239Z" fill="white"/>
<path d="M335.318 245.239H322.883V257.674H335.318V245.239Z" fill="white"/>
<path d="M355.352 245.239H342.917V257.674H355.352V245.239Z" fill="white"/>
<path d="M295.311 272.397C295.311 272.397 299.734 288.129 318.26 287.414C336.786 286.699 344.794 272.111 344.794 272.111L295.311 272.397Z" fill="#110B09"/>
<path d="M40.0248 211.043L34.7319 220.737L35.5912 238.931L162.423 276.618L217.652 283.41L206.855 217.544L169.071 210.854L112.391 212.474L64.3375 203.606L40.0248 211.043Z" fill="#110B09"/>
<path d="M57.6806 274.829H54.4065C51.2414 274.84 48.1392 273.945 45.4666 272.249C42.794 270.553 40.6628 268.128 39.3249 265.259C34.2774 254.24 35.7725 239.003 35.7947 238.786C36.9385 225.616 44.1564 217.023 53.757 217.413C64.3556 217.841 73.3933 254.499 73.7728 256.06C74.4026 258.691 74.237 261.45 73.2968 263.987C72.1271 267.182 69.9993 269.939 67.2043 271.879C64.4092 273.82 61.0832 274.85 57.6806 274.829V274.829Z" fill="#110B09"/>
<path d="M191.194 300C190.634 299.987 190.075 299.933 189.523 299.839C185.286 299.171 181.282 297.462 177.87 294.864C174.457 292.266 171.743 288.862 169.972 284.956C168.645 282.069 167.368 279.113 166.176 276.17C161.393 264.352 165.403 243.692 171.919 235.695C177.67 228.637 183.458 228.693 192.22 228.776C193.12 228.784 194.052 228.793 195.019 228.795C204.748 228.811 215.033 264.599 218.413 276.359C218.682 277.295 218.904 278.069 219.076 278.65C219.606 280.437 219.543 282.575 218.889 285.003C216.827 292.663 210.031 298.344 201.977 299.14C196.193 299.711 192.565 300 191.194 300Z" fill="#110B09"/>
<path d="M35.5914 238.932C35.5914 238.932 31.8729 222.342 37.4506 211.044L43.0722 197.457L64.3153 217.193L69.1661 248.076L152.293 260.671C152.293 260.671 147.145 210.043 179.467 208.04C211.788 206.038 227.125 260.671 227.125 260.671L243.252 272.398L355.664 264.103C355.664 264.103 357.648 269.538 354.797 272.398C351.945 275.258 215.507 284.125 215.507 284.125C215.507 284.125 208.642 216.335 181.469 222.628C154.296 228.921 162.423 276.618 162.423 276.618L65.3389 259.526C65.3389 259.526 62.1925 213.475 46.1746 213.475C30.1567 213.475 35.5914 238.932 35.5914 238.932Z" fill="#110B09"/>
<path d="M54.7476 181.257L73.0618 152.549L151.149 147.973L237.818 149.117L278.148 186.587L153.437 193.738L53.0393 188.303L54.7476 181.257Z" fill="#110B09"/>
<path d="M54.7476 181.257C54.7476 181.257 39.1666 181.582 37.4504 211.043C37.4504 211.043 54.0404 181.01 68.3421 247.942L153.723 261.814C153.723 261.814 150.577 206.038 182.899 210.328C215.221 214.619 222.944 265.819 222.944 265.819C222.944 265.819 229.236 278.404 263.846 276.402C298.457 274.4 350.229 271.254 355.663 264.103C355.663 264.103 368.249 221.484 329.062 194.024L278.148 186.587L162.876 188.876L54.7476 181.257Z" fill="#FF701A"/>
<path d="M93.7992 201.318H84.0741C83.8105 201.319 83.5493 201.268 83.3055 201.168C83.0617 201.068 82.8401 200.92 82.6533 200.734C82.4666 200.548 82.3185 200.327 82.2174 200.084C82.1163 199.84 82.0642 199.579 82.0642 199.316C82.0642 199.052 82.1163 198.791 82.2174 198.548C82.3185 198.304 82.4666 198.083 82.6533 197.897C82.8401 197.711 83.0617 197.564 83.3055 197.464C83.5493 197.364 83.8105 197.312 84.0741 197.313H93.7992C94.3289 197.316 94.8363 197.527 95.2101 197.903C95.584 198.278 95.7939 198.786 95.7939 199.316C95.7939 199.845 95.584 200.354 95.2101 200.729C94.8363 201.104 94.3289 201.316 93.7992 201.318V201.318Z" fill="#CACACA"/>
<path d="M241.822 263.531C245.297 263.531 248.115 260.713 248.115 257.238C248.115 253.763 245.297 250.945 241.822 250.945C238.347 250.945 235.529 253.763 235.529 257.238C235.529 260.713 238.347 263.531 241.822 263.531Z" fill="#F6F1EE"/>
<path d="M238.704 226.36C234.396 226.36 229.252 224.521 224.649 220.975C216.525 214.716 213.112 205.476 217.04 200.376C220.969 195.276 230.775 196.219 238.898 202.477C242.824 205.501 245.78 209.302 247.222 213.18C248.671 217.08 248.418 220.594 246.507 223.075C244.804 225.285 241.998 226.36 238.704 226.36Z" fill="#F6F1EE"/>
<path d="M350.529 218.37C347.359 218.37 341.666 215.161 336.028 209.952C332.65 206.83 329.851 203.484 328.147 200.529C326.416 197.528 326.022 195.271 327.037 194.172C328.051 193.074 330.333 193.289 333.462 194.777C336.541 196.243 340.098 198.769 343.477 201.891C350.608 208.479 354.557 215.411 352.469 217.671C352.213 217.917 351.908 218.107 351.573 218.227C351.239 218.348 350.883 218.396 350.529 218.37V218.37Z" fill="#F6F1EE"/>
<path d="M84.7006 181.251C84.6326 181.251 84.5642 181.248 84.4955 181.241L63.8126 179.318C63.4352 179.283 63.073 179.152 62.7604 178.938C62.4478 178.724 62.1952 178.433 62.0264 178.093C61.8576 177.754 61.7784 177.377 61.7961 176.999C61.8139 176.62 61.9281 176.252 62.1279 175.93L73.791 157.126C73.9818 156.819 74.2448 156.562 74.5572 156.379C74.8696 156.196 75.2219 156.092 75.5836 156.076L91.01 155.396C91.3647 155.38 91.7179 155.45 92.0403 155.598C92.3626 155.747 92.6447 155.971 92.8629 156.251C93.0811 156.531 93.2292 156.859 93.2947 157.208C93.3602 157.557 93.3413 157.916 93.2395 158.256L86.8329 179.664C86.6945 180.122 86.4126 180.523 86.0287 180.809C85.6447 181.095 85.1792 181.25 84.7006 181.251Z" fill="#F6F1EE"/>
<path d="M139.203 185.657C138.999 185.657 138.794 185.647 138.587 185.627L102.83 182.107C101.927 182.018 101.053 181.733 100.271 181.272C99.4888 180.81 98.8167 180.184 98.3015 179.436C97.7862 178.688 97.4404 177.837 97.288 176.942C97.1356 176.047 97.1804 175.129 97.4192 174.253L102.563 155.378C102.909 154.091 103.661 152.948 104.706 152.12C105.751 151.293 107.035 150.823 108.368 150.781L137.225 149.773C138.791 149.727 140.318 150.267 141.505 151.288C142.693 152.31 143.456 153.738 143.644 155.293L146.025 175.835C146.105 176.52 146.07 177.214 145.923 177.888L145.297 180.748C144.993 182.138 144.222 183.383 143.114 184.275C142.006 185.168 140.626 185.655 139.203 185.657Z" fill="#F6F1EE"/>
<path d="M167.11 186.65C166.063 186.647 165.048 186.291 164.229 185.639C163.41 184.988 162.834 184.08 162.595 183.061L156.287 155.796C156.13 155.116 156.128 154.41 156.282 153.73C156.436 153.05 156.741 152.414 157.175 151.868C157.608 151.322 158.16 150.881 158.788 150.578C159.416 150.276 160.104 150.118 160.801 150.118H235.603C236.223 150.12 236.837 150.245 237.408 150.486C237.979 150.728 238.496 151.081 238.929 151.526L263.361 176.716C263.989 177.363 264.414 178.179 264.585 179.065C264.755 179.95 264.664 180.866 264.322 181.7C263.98 182.534 263.402 183.25 262.659 183.761C261.916 184.271 261.04 184.554 260.139 184.574L167.213 186.649C167.178 186.65 167.144 186.65 167.11 186.65Z" fill="#F6F1EE"/>
<path d="M72.4233 153.551L73.0618 152.55C73.0618 152.55 76.7803 142.253 127.98 140.536C179.181 138.82 226.948 139.678 237.818 149.117L149.433 148.831L74.7781 153.98L72.4233 153.551Z" fill="#FF701A"/>
<path d="M48.1768 226.918C42.8057 226.918 38.4517 235.882 38.4517 246.94C38.4517 257.998 42.8057 266.963 48.1768 266.963C53.5479 266.963 57.902 257.998 57.902 246.94C57.902 235.882 53.5479 226.918 48.1768 226.918ZM48.6059 231.208C49.7907 231.208 50.7511 233.514 50.7511 236.357C50.7511 239.201 49.7907 241.506 48.6059 241.506C47.4211 241.506 46.4606 239.201 46.4606 236.357C46.4606 233.514 47.4211 231.208 48.6059 231.208ZM49.893 246.94C49.893 247.888 49.2527 248.657 48.4629 248.657C47.6731 248.657 47.0327 247.888 47.0327 246.94C47.0327 245.992 47.6731 245.224 48.4629 245.224C49.2527 245.224 49.893 245.993 49.893 246.94V246.94ZM42.4204 248.042C40.5812 248.184 39.0423 247.678 38.9831 246.912C38.9239 246.145 40.3668 245.409 42.206 245.267C44.0451 245.125 45.584 245.631 45.6432 246.397C45.7024 247.163 44.2595 247.9 42.4204 248.042L42.4204 248.042ZM48.6059 262.672C47.4211 262.672 46.4606 260.367 46.4606 257.524C46.4606 254.68 47.4211 252.375 48.6059 252.375C49.7907 252.375 50.7511 254.68 50.7511 257.524C50.7511 260.367 49.7907 262.672 48.6059 262.672H48.6059ZM54.1478 248.042C52.3086 248.184 50.7697 247.678 50.7105 246.912C50.6513 246.145 52.0942 245.409 53.9334 245.267C55.7725 245.125 57.3114 245.631 57.3706 246.397C57.4298 247.163 55.9869 247.9 54.1478 248.042L54.1478 248.042Z" fill="#E4E4E4"/>
<path d="M184.043 240.362C175.513 240.362 168.597 251.824 168.597 265.962C168.597 280.101 175.513 291.562 184.043 291.562C192.573 291.562 199.489 280.101 199.489 265.962C199.489 251.824 192.573 240.362 184.043 240.362ZM174.815 267.883C172.324 268.076 170.24 267.39 170.159 266.352C170.079 265.314 172.034 264.317 174.525 264.124C177.016 263.932 179.101 264.618 179.181 265.656C179.261 266.694 177.307 267.691 174.815 267.883ZM184.052 287.415C182.447 287.415 181.146 284.293 181.146 280.441C181.146 276.589 182.447 273.467 184.052 273.467C185.657 273.467 186.958 276.589 186.958 280.441C186.958 284.293 185.657 287.415 184.052 287.415V287.415ZM181.755 266.105C181.755 264.589 182.779 263.359 184.043 263.359C185.307 263.359 186.331 264.589 186.331 266.105C186.331 267.622 185.307 268.851 184.043 268.851C182.779 268.851 181.755 267.622 181.755 266.105ZM184.052 258.744C182.447 258.744 181.146 255.622 181.146 251.77C181.146 247.918 182.447 244.796 184.052 244.796C185.657 244.796 186.958 247.918 186.958 251.77C186.958 255.622 185.657 258.744 184.052 258.744V258.744ZM193.847 267.311C191.356 267.504 189.271 266.818 189.191 265.78C189.111 264.742 191.066 263.745 193.557 263.552C196.048 263.36 198.132 264.045 198.213 265.083C198.293 266.121 196.338 267.119 193.847 267.311Z" fill="#E4E4E4"/>
<path d="M129.982 189.162L133.415 197.171C133.415 197.171 139.136 199.459 142.854 191.736L135.319 184.201L129.982 189.162Z" fill="#CACACA"/>
<path d="M125.263 191.021C119.112 191.021 114.108 187.685 114.108 183.584C114.108 179.484 119.112 176.147 125.263 176.147C131.414 176.147 136.418 179.484 136.418 183.584C136.418 187.685 131.414 191.021 125.263 191.021Z" fill="#110B09"/>
<path d="M340.362 217.193L276.41 219.063C276.41 219.063 262.414 222.989 260.986 234.205C260.986 234.205 262.986 243.365 268.127 243.365C273.268 243.365 352.101 239.253 352.101 239.253C352.101 239.253 357.242 231.401 352.958 225.793C348.673 220.184 340.362 217.193 340.362 217.193Z" fill="#110B09"/>
<path d="M345.898 220.767L270.901 223.246L270.93 224.104L345.927 221.624L345.898 220.767Z" fill="#E4E4E4"/>
<path d="M348.627 223.486L267.06 227.182L267.099 228.039L348.665 224.343L348.627 223.486Z" fill="#E4E4E4"/>
<path d="M351.482 227.179L264.01 231.876L264.056 232.733L351.528 228.036L351.482 227.179Z" fill="#E4E4E4"/>
<path d="M47.7223 208.169C47.3729 207.72 47.1262 207.2 46.9996 206.646C46.8729 206.091 46.8693 205.516 46.9891 204.96C47.1089 204.404 47.3492 203.881 47.693 203.428C48.0367 202.974 48.4757 202.602 48.9788 202.337L48.1663 193.484L53.4261 191.678L54.398 204.197C54.7876 205.072 54.8426 206.059 54.5526 206.972C54.2627 207.885 53.6478 208.66 52.8247 209.149C52.0016 209.639 51.0274 209.81 50.0868 209.629C49.1462 209.449 48.3046 208.929 47.7215 208.169L47.7223 208.169Z" fill="#F6F1EE"/>
<path d="M53.3688 157.355C53.3688 157.355 56.9782 149.78 60.1857 152.442C63.3931 155.105 55.7883 177.505 55.7883 177.505L54.632 199.251L48.5364 198.641L46.8127 177.457L53.3688 157.355Z" fill="#C39B89"/>
<path d="M4.95288 269.425L9.47772 273.088L25.7591 257.376L19.081 251.972L4.95288 269.425Z" fill="#F6F1EE"/>
<path d="M4.99407 267.013L13.9053 274.225C15.4113 275.445 16.3713 277.212 16.5741 279.139C16.7769 281.066 16.206 282.995 14.9868 284.501L14.8375 284.685L0.247803 272.876L4.99407 267.013Z" fill="#110B09"/>
<path d="M67.8393 279.592H73.6608L76.4289 257.136H67.8381L67.8393 279.592Z" fill="#F6F1EE"/>
<path d="M66.3538 277.691H77.819C79.7567 277.691 81.6151 278.461 82.9853 279.831C84.3555 281.201 85.1254 283.059 85.1256 284.997V285.235H66.3541L66.3538 277.691Z" fill="#110B09"/>
<path d="M78.0542 174.32C78.0542 174.32 88.976 187.615 86.6017 200.913C84.2274 214.21 82.3279 224.181 82.3279 224.181L78.531 254.097C78.531 254.097 79.9556 262.245 78.0561 264.344C78.0561 264.344 80.9053 269.292 75.6818 271.192C70.4584 273.091 67.638 270.537 67.638 270.537C67.638 270.537 63.8084 265.02 66.1827 263.597L67.1831 204.883L29.1439 254.571C29.1439 254.571 28.4448 260.614 23.5707 260.68L17.7472 265.018L11.0991 261.219L14.4231 256.945C14.4231 256.945 12.5237 252.196 16.7974 251.247L41.4903 218.957L47.6634 202.337C47.6634 202.337 50.9875 189.515 60.0098 184.292V178.734L78.0542 174.32Z" fill="#110B09"/>
<path d="M59.2973 151.29C60.7352 149.591 62.7477 148.48 64.9517 148.169C67.1557 147.858 69.3972 148.368 71.2492 149.603L71.6437 149.866C75.8587 154.64 78.6915 160.472 79.8372 166.736L81.6154 176.458L59.297 181.293L54.0649 163.248C53.4008 160.958 53.5607 158.507 54.5166 156.322C55.4725 154.138 57.1641 152.357 59.297 151.291L59.2973 151.29Z" fill="#98664D"/>
<path d="M95.9651 210.236C95.3464 210.034 94.7795 209.698 94.3045 209.253C93.8294 208.808 93.4577 208.264 93.2155 207.66C92.9733 207.056 92.8666 206.406 92.9028 205.756C92.939 205.106 93.1173 204.472 93.4251 203.898L86.9868 196.019L90.8208 190.938L99.7566 202.194C100.686 202.775 101.369 203.676 101.678 204.728C101.987 205.779 101.9 206.907 101.432 207.898C100.965 208.89 100.15 209.675 99.1428 210.106C98.1352 210.537 97.0046 210.583 95.9651 210.236H95.9651Z" fill="#F6F1EE"/>
<path d="M68.7943 158.413C68.7943 158.413 67.3697 148.915 72.1183 149.39C76.8669 149.865 83.9899 175.983 83.9899 175.983L96.8111 197.351L90.6379 200.675L75.4424 181.681L68.7943 158.413Z" fill="#C39B89"/>
<path d="M77.4904 144.529H54.878C54.4128 144.528 53.9669 144.343 53.638 144.014C53.3091 143.685 53.1241 143.239 53.1235 142.774V133.027C53.1235 129.564 54.4996 126.241 56.9489 123.792C59.3982 121.343 62.7203 119.967 66.1842 119.967C69.6481 119.967 72.9701 121.343 75.4194 123.792C77.8688 126.241 79.2448 129.564 79.2448 133.027V133.027V142.774C79.2443 143.239 79.0593 143.685 78.7304 144.014C78.4015 144.343 77.9555 144.528 77.4904 144.529V144.529Z" fill="#110B09"/>
<path d="M68.8681 144.302C74.1565 144.302 78.4437 140.014 78.4437 134.726C78.4437 129.438 74.1565 125.15 68.8681 125.15C63.5796 125.15 59.2925 129.438 59.2925 134.726C59.2925 140.014 63.5796 144.302 68.8681 144.302Z" fill="#F6F1EE"/>
<path d="M82.3344 134.002H70.2836L70.16 132.017L69.5421 134.002H67.6867L67.4419 130.067L66.2173 134.002H62.627V133.807C62.627 128.11 66.6664 123.476 71.6329 123.476H73.332C78.297 123.476 82.338 128.11 82.338 133.807L82.3344 134.002Z" fill="#110B09"/>
<path d="M70.7827 146.348C70.6355 146.348 70.4885 146.336 70.343 146.314L55.9993 144.104V129.165C55.9993 127.638 56.6055 126.175 57.6847 125.096C58.7639 124.016 60.2276 123.41 61.7537 123.41H71.789L71.3991 123.808C65.9604 129.344 70.058 138.324 72.9843 143.185C73.1991 143.534 73.296 143.943 73.2609 144.352C73.2259 144.76 73.0606 145.147 72.7894 145.454C72.5403 145.74 72.2318 145.969 71.8853 146.123C71.5389 146.278 71.1628 146.355 70.7835 146.349L70.7827 146.348Z" fill="#110B09"/>
</g>
<defs>
<clipPath id="clip0_1493_3097">
<rect width="401.439" height="300" fill="white" transform="translate(0.247803)"/>
</clipPath>
</defs>
</svg>
