<svg width="345" height="300" viewBox="0 0 345 300" fill="none" xmlns="http://www.w3.org/2000/svg">
    <g clip-path="url(#clip0_1511_3862)">
    <path d="M114.445 39.0752C115.408 37.1357 116.948 35.5254 117.89 33.5753C118.832 31.6253 119.015 29.0152 117.446 27.5226C116.114 26.2552 114.027 26.2375 112.434 25.3195C108.374 22.9808 108.379 15.5523 103.739 14.9104C101.482 14.5983 99.4405 16.2906 98.0766 18.1151C96.7127 19.9397 95.626 22.0688 93.7345 23.3382C91.5933 24.7752 88.825 24.8377 86.4473 25.8358C81.8886 27.7495 79.4985 32.6703 77.5001 37.1926C76.2127 40.1059 74.8959 43.2481 75.4932 46.3767C74.1948 47.1845 74.7735 49.3574 76.0695 50.169C77.3655 50.9806 78.993 50.9626 80.4812 51.3142C83.609 52.053 86.1701 54.5429 87.3842 57.5185C88.3305 59.8378 88.524 62.3843 88.7066 64.8825C89.0234 69.2175 89.3402 73.5525 89.657 77.8874C89.798 79.816 89.9829 81.8656 91.1568 83.4023C92.3307 84.939 94.8728 85.5829 96.1925 84.1694C97.4536 82.8186 96.8856 80.6799 96.86 78.8321C96.8345 76.9842 98.5049 74.6832 100.08 75.6499L100.635 74.3896C104.233 73.1014 107.383 70.8038 109.709 67.7718C112.035 64.7397 113.437 61.1017 113.749 57.2932C114.152 51.1587 111.71 44.5811 114.445 39.0752Z" fill="#E5D4CC"/>
    <path d="M118.121 77.9748C118.469 77.6473 118.715 77.2272 118.832 76.7641C118.949 76.3011 118.93 75.8143 118.779 75.3613C118.628 74.9083 118.351 74.5079 117.98 74.2073C117.609 73.9068 117.16 73.7186 116.685 73.665L116.691 73.8732C116.014 74.2686 115.242 74.4716 114.458 74.4602C113.677 74.4479 112.899 74.571 112.16 74.8242C111.792 74.9578 111.474 75.1996 111.246 75.5177C111.019 75.8358 110.893 76.2153 110.885 76.6062C110.928 76.9059 111.043 77.1908 111.22 77.4367C111.396 77.6826 111.629 77.8822 111.9 78.0187C112.442 78.286 113.025 78.4629 113.624 78.5425C115.169 78.8331 116.978 79.0531 118.121 77.9748Z" fill="#E5D4CC"/>
    <path d="M148.249 39.1778C148.896 38.7377 149.446 38.1688 149.863 37.5068C150.065 37.1718 150.161 36.7835 150.139 36.3929C150.116 36.0022 149.976 35.6275 149.737 35.3179C149.25 34.8952 148.623 34.6688 147.978 34.6825C146.227 34.5518 144.467 34.7593 142.795 35.2937C144.512 36.8153 146.23 38.3368 147.947 39.8584L148.249 39.1778Z" fill="#E5D4CC"/>
    <path d="M139.66 43.1348C140.355 43.901 140.133 45.0895 139.937 46.1045C139.74 47.1196 139.715 48.388 140.588 48.9417C141.345 49.4217 142.407 49.03 142.961 48.3253C143.455 47.5737 143.757 46.7114 143.838 45.8152C144.11 44.5128 144.233 43.1836 144.204 41.8533C144.172 40.5131 143.699 39.2208 142.859 38.1759C142.263 37.4963 141.469 37.0204 140.589 36.8147C139.709 36.6091 138.786 36.6841 137.951 37.0292L138.748 36.9898C138.168 37.7346 137.729 38.5786 137.45 39.4807C137.317 39.9339 137.308 40.4145 137.423 40.8726C137.538 41.3307 137.774 41.7495 138.106 42.0856C138.58 42.4975 139.239 42.6698 139.66 43.1348Z" fill="#E5D4CC"/>
    <path d="M178.81 30.2846L178.952 29.8477C178.359 30.1909 177.901 30.7275 177.656 31.3677C177.411 32.0079 177.394 32.7128 177.607 33.3644C178.063 33.0044 178.415 32.5293 178.627 31.9879C178.838 31.4466 178.902 30.8586 178.81 30.2846Z" fill="#E5D4CC"/>
    <path d="M171.098 36.538C171.854 36.1102 172.499 35.5113 172.981 34.7894C173.463 34.0675 173.77 33.2427 173.876 32.3809C173.958 31.8452 173.896 31.2972 173.696 30.7933C173.594 30.5431 173.431 30.3222 173.222 30.15C173.014 29.9779 172.766 29.8599 172.501 29.8066L172.178 30.3152C171.715 29.9164 170.936 30.3266 170.741 30.9061C170.616 31.5078 170.668 32.1331 170.892 32.7056C171.115 33.2815 171.105 33.9219 170.863 34.4905C170.603 34.8248 170.31 35.1326 169.989 35.4092C169.832 35.552 169.729 35.7449 169.699 35.9549C169.668 36.1649 169.712 36.3789 169.822 36.5604C170.126 36.9078 170.695 36.762 171.098 36.538Z" fill="#E5D4CC"/>
    <path d="M167.81 33.6974C168.087 33.1996 168.217 32.634 168.187 32.0654L167.48 31.8438C167.028 32.0269 166.628 32.3166 166.312 32.6882C166.217 32.7843 166.143 32.9003 166.098 33.0279C166.052 33.1556 166.035 33.2918 166.048 33.4267C166.061 33.5617 166.104 33.6921 166.174 33.8085C166.243 33.925 166.337 34.0247 166.45 34.1004C166.562 34.1762 166.69 34.2262 166.824 34.2467C166.958 34.2673 167.095 34.258 167.225 34.2195C167.355 34.181 167.475 34.1142 167.576 34.024C167.677 33.9337 167.757 33.8222 167.81 33.6974Z" fill="#E5D4CC"/>
    <path d="M202.349 30.1211C202.413 30.1746 202.477 30.2296 202.541 30.2836C202.597 30.2718 202.65 30.2506 202.708 30.2435L202.349 30.1211Z" fill="#E5D4CC"/>
    <path d="M201.217 36.3223C201.866 35.7975 202.514 35.2727 203.163 34.7478C203.508 34.5039 203.802 34.1951 204.028 33.8387C204.183 33.5013 204.249 33.1302 204.222 32.76C204.195 32.3898 204.074 32.0326 203.871 31.7216C203.512 31.1704 203.062 30.6841 202.541 30.2832C201.968 30.4188 201.464 30.7599 201.126 31.2417C200.788 31.7236 200.638 32.3128 200.704 32.8978C200.822 33.6419 201.289 34.4377 200.908 35.0873C200.759 35.3402 200.504 35.5124 200.332 35.7506C200.161 35.9887 200.105 36.368 200.341 36.5432C200.602 36.7376 200.964 36.5271 201.217 36.3223Z" fill="#E5D4CC"/>
    <path d="M202.635 39.535C202.877 39.548 203.118 39.5088 203.343 39.4204C203.568 39.3319 203.771 39.1961 203.938 39.0222C204.806 38.3116 205.564 37.478 206.19 36.5479C204.731 37.0103 203.271 37.4726 201.811 37.935L202.266 38.4672C201.862 38.7311 202.161 39.4442 202.635 39.535Z" fill="#E5D4CC"/>
    <path d="M206.727 42.5403C206.816 42.768 206.978 42.9602 207.186 43.0876C207.395 43.215 207.64 43.2706 207.883 43.2458C208.125 43.2135 208.357 43.1285 208.563 42.9968C208.769 42.8651 208.943 42.6898 209.074 42.4833C209.296 42.1561 209.426 41.7756 209.452 41.381C209.477 40.9865 209.397 40.5923 209.219 40.2392C209.041 39.8862 208.772 39.587 208.44 39.3727C208.108 39.1585 207.724 39.0369 207.329 39.0205L207.732 39.6363C207.835 40.6873 206.406 41.5343 206.727 42.5403Z" fill="#E5D4CC"/>
    <path d="M235.078 54.0516C235.473 54.3462 235.953 54.5048 236.445 54.5036C236.938 54.5025 237.417 54.3416 237.81 54.0451C238.065 53.8272 238.273 53.559 238.419 53.2573C238.566 52.9556 238.649 52.6268 238.662 52.2916C238.676 51.9565 238.62 51.6221 238.499 51.3094C238.377 50.9967 238.192 50.7125 237.956 50.4746L237.21 50.8909C236.797 50.6251 236.296 50.5301 235.814 50.6259C235.332 50.7217 234.906 51.0007 234.625 51.4043C234.374 51.8274 234.281 52.3263 234.364 52.8114C234.447 53.2966 234.7 53.7363 235.078 54.0516Z" fill="#E5D4CC"/>
    <path d="M243.748 55.0333C244.111 54.9279 244.441 54.731 244.706 54.4616C244.972 54.1921 245.163 53.8591 245.263 53.4944L243.813 53.3039C243.41 52.9994 242.941 52.7943 242.444 52.7055C242.194 52.6681 241.94 52.7176 241.722 52.8456C241.505 52.9737 241.338 53.1724 241.25 53.4087C241.219 53.6097 241.24 53.8152 241.312 54.0057C241.383 54.1962 241.501 54.3654 241.656 54.497C241.93 54.7579 242.266 54.9443 242.632 55.0382C242.999 55.1321 243.383 55.1304 243.748 55.0333Z" fill="#E5D4CC"/>
    <path d="M237.762 57.9309C237.788 58.1667 237.88 58.3904 238.028 58.5758C238.176 58.7612 238.373 58.9006 238.598 58.9778C238.843 59.0941 239.117 59.134 239.385 59.0925C239.653 59.051 239.902 58.93 240.1 58.7451C240.188 58.6463 240.251 58.528 240.283 58.4001C240.316 58.2722 240.318 58.1384 240.288 58.0098C240.259 57.8811 240.199 57.7613 240.114 57.6604C240.029 57.5594 239.921 57.4802 239.799 57.4293L238.712 57.2316C238.292 57.0142 237.755 57.458 237.762 57.9309Z" fill="#E5D4CC"/>
    <path d="M174.693 65.5739L173.852 64.8057C174.075 65.1176 174.362 65.3792 174.693 65.5739Z" fill="#E5D4CC"/>
    <path d="M168.267 61.0507C168.785 63.456 171.376 65.4155 173.727 64.6928L173.851 64.8061C173.103 63.7813 172.976 62.2649 173.151 60.9462C173.475 58.6865 174.364 56.545 175.734 54.7192C177.104 52.8933 178.912 51.442 180.991 50.4992C181.561 50.3214 182.07 49.9896 182.463 49.5405C182.798 49.0504 182.673 48.2099 182.096 48.0714C181.782 48.0355 181.465 48.1088 181.199 48.2789L176.828 50.4301C174.621 51.5165 172.369 52.6341 170.635 54.3797C168.901 56.1253 167.749 58.6454 168.267 61.0507Z" fill="#E5D4CC"/>
    <path d="M97.7151 143.759C93.6428 140.844 89.1825 138.513 84.4641 136.835C81.5639 135.804 78.4477 135.017 75.426 135.602C73.7689 135.945 72.216 136.674 70.8935 137.73C69.571 138.785 68.5162 140.138 67.8148 141.678C67.139 143.229 66.8212 144.913 66.885 146.603C66.9487 148.294 67.3924 149.949 68.183 151.444C69.5765 154.056 71.9895 156.135 72.7962 158.983C73.3401 160.903 73.0825 162.947 72.8207 164.925C72.2857 168.967 71.7507 173.01 71.2157 177.052C70.7287 180.733 70.2541 184.563 71.4193 188.087C72.5846 191.612 75.9098 194.72 79.6034 194.345L80.3353 194.29C77.892 192.629 77.2072 189.189 77.9347 186.325C78.6622 183.462 80.5086 181.033 82.3114 178.692C87.6613 171.745 93.0111 164.798 98.361 157.852C100.525 155.041 102.815 151.567 101.661 148.213C101.005 146.306 99.3545 144.934 97.7151 143.759Z" fill="#E5D4CC"/>
    <path d="M61.2558 126.198C60.7139 126.014 60.1416 126.422 59.8231 126.897C59.5656 127.408 59.2631 127.894 58.9191 128.351C58.0857 129.21 56.567 129.039 55.6682 128.249C54.7693 127.458 54.3799 126.236 54.2054 125.052C53.9961 123.631 54.0865 122.046 55.0242 120.958C55.9895 119.839 57.576 119.538 59.036 119.306C60.544 119.066 62.2336 118.865 63.469 119.763C64.2472 120.328 64.7008 121.24 65.4217 121.877C66.1426 122.514 67.4249 122.755 67.9675 121.961C68.1095 121.679 68.1812 121.368 68.1767 121.052C68.1722 120.737 68.0915 120.428 67.9414 120.15C67.6364 119.598 67.453 118.987 67.4033 118.358C67.4396 117.484 68.1407 116.791 68.858 116.292C69.5753 115.793 70.3854 115.362 70.856 114.626C71.4349 113.72 71.3735 112.553 71.7326 111.54C72.6017 109.088 75.7035 107.998 76.6071 105.558C76.8248 105.045 76.8492 104.47 76.6759 103.94C76.2977 102.969 75.2755 103.159 75.2128 101.972C75.1528 100.836 76.1005 99.7216 77.0634 99.2471C78.391 98.5929 79.9387 98.646 81.4182 98.6062C82.8977 98.5665 84.4916 98.3698 85.5774 97.364C85.9288 97.0018 86.1997 96.5694 86.3725 96.0952C86.5453 95.621 86.616 95.1157 86.58 94.6123C86.5441 94.1089 86.4022 93.6188 86.1637 93.174C85.9252 92.7292 85.5955 92.3398 85.1962 92.0312C84.3871 91.4724 83.3643 91.2781 82.5771 90.689C81.5966 89.9552 81.1325 88.7332 80.3688 87.7758C79.7335 87.0468 79.0065 86.4032 78.206 85.8609C77.5507 85.3746 76.8954 84.8884 76.2401 84.4022C75.0555 83.5232 73.8229 82.6218 72.3814 82.3086C70.9399 81.9954 69.2233 82.4386 68.5014 83.725C68.2166 84.2983 68.0611 84.9271 68.0458 85.5671C67.98 87.0738 68.0429 88.5834 68.2337 90.0795C68.3526 91.2837 68.4716 92.4879 68.5906 93.6922C68.6972 94.7717 68.5827 96.195 67.5348 96.4752C65.2099 97.0968 65.9944 93.6592 65.4788 92.6061C64.6896 90.9942 61.0634 90.2201 59.5132 89.5483C58.545 89.1288 57.5233 88.6656 56.9387 87.7872C56.2111 86.694 56.3604 85.206 56.931 84.0232C57.5016 82.8404 58.4312 81.8776 59.2757 80.8719C60.1366 79.8468 60.9205 78.7599 61.7035 77.6741C62.6116 76.4148 63.5198 75.1555 64.4279 73.8962C65.5926 72.2811 66.817 70.31 66.1554 68.4318C66.012 68.1806 65.7977 67.9772 65.5393 67.8472C65.2808 67.7172 64.9898 67.6663 64.7026 67.7009C64.4154 67.7355 64.1448 67.8542 63.9247 68.0419C63.7045 68.2296 63.5447 68.4781 63.4651 68.7562C63.1752 69.7701 63.9487 71.0647 63.2087 71.8161C62.9552 72.0203 62.638 72.1288 62.3126 72.1227C61.9872 72.1166 61.6742 71.9963 61.4286 71.7828C60.9493 71.3402 60.5843 70.7882 60.3646 70.1739C59.468 68.1815 58.5946 66.1768 57.6743 64.1953C57.3834 63.569 57.0797 62.4964 56.1981 62.602C55.4327 62.6937 55.0193 63.809 55.0459 64.4566C55.0846 65.3987 55.6054 66.2406 56.0034 67.0954C56.4014 67.9503 56.6797 68.9768 56.2427 69.8124C55.6894 70.8704 54.2881 71.108 53.0947 71.0731C50.8452 71.0049 48.6411 70.4234 46.6508 69.3728C46.5988 70.4784 46.5468 71.584 46.4948 72.6896C44.9108 72.0266 43.3267 71.3636 41.7427 70.7006C41.4351 70.5718 41.1274 70.443 40.8197 70.3143C39.4835 69.755 38.1457 69.195 36.7701 68.741C35.9892 68.4833 35.1974 68.2601 34.4059 68.0369C33.9248 67.9013 33.4436 67.7657 32.9625 67.6301C32.0131 67.2937 31.0061 67.15 30.0004 67.2076C28.9439 67.3403 28.0015 67.9077 27.0244 68.3319C24.8444 69.2783 22.0247 68.3262 19.6886 68.3094C18.7619 66.9565 17.5108 65.8576 16.0498 65.1131C14.5888 64.3686 12.9644 64.0024 11.3252 64.0478C9.68605 64.0932 8.08444 64.5489 6.66686 65.3731C5.24928 66.1973 4.06098 67.3639 3.21064 68.7659C2.79991 69.4763 2.43413 70.2118 2.11546 70.968C1.79849 71.6783 1.48151 72.3887 1.16452 73.099C0.699517 74.1411 0.224257 75.2389 0.315655 76.3764C0.407054 77.5138 1.27902 78.6758 2.42007 78.6655C-0.270619 79.8836 -0.830516 84.1462 1.45432 86.0179C2.087 86.5362 2.86283 86.8752 3.43218 87.4623C3.86249 87.9061 4.15038 88.4683 4.25889 89.0769C4.3674 89.6855 4.29158 90.3126 4.04117 90.8777C3.79076 91.4429 3.37718 91.9203 2.8535 92.2488C2.32983 92.5772 1.71996 92.7417 1.10215 92.7211C2.69621 93.3371 4.45206 93.3944 6.08289 92.8836C7.71372 92.3728 9.12313 91.324 10.0809 89.9087C11.0577 88.3792 11.4823 86.4685 12.8112 85.2326C14.571 83.5958 17.4779 83.7228 19.5077 85.0098C21.5375 86.2968 22.8215 88.4882 23.7048 90.7234C24.8622 93.6526 25.603 96.9998 28.0689 98.9591C29.2612 99.9065 30.7712 100.439 31.8251 101.539C33.3258 103.104 33.5855 105.467 33.5517 107.636C33.5178 109.804 33.2843 112.054 34.0742 114.074C34.8641 116.093 37.1287 117.755 39.1593 116.993C38.5776 118.719 38.5954 120.591 39.21 122.306C39.8245 124.02 40.9997 125.477 42.5454 126.441C42.1754 124.146 41.8055 121.851 41.4355 119.557C43.2795 120.076 44.4746 121.864 45.1648 123.651C45.855 125.438 46.2197 127.371 47.2201 129.004C48.7956 131.576 51.6485 132.685 54.5506 132.675C57.6858 132.665 58.8761 131.17 60.9421 128.968C61.3572 128.593 61.6723 128.12 61.8588 127.592C61.9432 127.326 61.9286 127.038 61.8178 126.782C61.707 126.526 61.5074 126.319 61.2558 126.198Z" fill="#E5D4CC"/>
    <path d="M70.1331 126.083C68.3807 125.808 66.6284 125.532 64.876 125.257C65.7946 125.809 66.7133 126.361 67.6319 126.914C68.3979 127.423 69.2309 127.825 70.107 128.106C70.5463 128.244 71.0094 128.291 71.4674 128.242C71.9255 128.194 72.3687 128.052 72.7697 127.826L72.5454 127.397C72.192 126.504 71.0823 126.232 70.1331 126.083Z" fill="#E5D4CC"/>
    <path d="M68.9425 135.824L68.9546 135.794C68.8486 135.618 68.6925 135.478 68.5063 135.392C68.3201 135.305 68.1124 135.277 67.9098 135.309C67.5061 135.382 67.0934 135.388 66.6876 135.329C66.4298 135.228 66.1999 135.067 66.0171 134.86C65.8343 134.652 65.7039 134.403 65.6368 134.135C65.4626 133.611 65.4111 133.05 65.2127 132.535C65.0694 132.127 64.8164 131.767 64.4815 131.494C64.1467 131.221 63.743 131.045 63.3149 130.987C62.8853 130.952 62.4594 131.088 62.1293 131.365C61.7991 131.642 61.5913 132.038 61.5508 132.467C61.5845 132.909 61.7249 133.336 61.9598 133.712C62.1489 134.075 62.3379 134.439 62.5269 134.802C62.6862 135.128 62.8694 135.442 63.0751 135.741C63.4097 136.202 63.8472 136.578 64.3528 136.841C64.8585 137.103 65.4183 137.244 65.9879 137.252C66.5574 137.26 67.121 137.135 67.6339 136.887C68.1468 136.639 68.5949 136.275 68.9425 135.824Z" fill="#E5D4CC"/>
    <path d="M58.7082 42.5705C60.0426 43.3571 61.7136 43.8993 62.3476 45.3126L62.7133 45.4307C62.3144 45.9265 61.9154 46.4222 61.5165 46.918C61.0234 47.5306 60.505 48.2132 60.5165 48.9995C60.5324 50.0824 61.5741 50.8994 62.6266 51.1547C63.7498 51.3858 64.9187 51.1914 65.9066 50.6091C66.8945 50.0268 67.6308 49.0983 67.9726 48.0037C68.0977 47.5472 68.1494 47.0737 68.2592 46.6133C68.5791 45.5213 69.062 44.4838 69.6916 43.5359C73.2349 37.5748 76.7781 31.6137 80.3214 25.6526C80.7627 24.9102 81.2176 24.0221 80.8858 23.2248C80.7087 22.8876 80.4346 22.6111 80.099 22.4309C79.7633 22.2508 79.3815 22.1753 79.0025 22.2142C78.2463 22.3061 77.5168 22.5514 76.8587 22.9352C76.5664 22.4217 76.1538 21.9868 75.6564 21.6679C75.159 21.3489 74.5915 21.1555 74.0029 21.1042C72.8258 21.0134 71.6417 21.1165 70.4981 21.4095C67.9142 21.7993 65.4227 22.6553 63.1448 23.9356C61.8986 24.5656 60.5272 25.3436 60.1657 26.6923C59.7209 28.3514 61.1542 30.0423 62.8043 30.5191C64.4545 30.9959 66.2158 30.5955 67.8859 30.1941C68.0747 31.0038 67.996 31.8528 67.6617 32.6139C67.3273 33.375 66.7553 34.0073 66.0313 34.416C65.3074 34.8246 64.4705 34.9877 63.6461 34.8806C62.8216 34.7736 62.0541 34.4022 61.4585 33.8223C60.2614 32.6566 59.675 30.633 58.0314 30.3321C56.393 30.0322 55.0906 31.7797 54.729 33.4057C54.3753 35.1569 54.5672 36.9745 55.2787 38.6133C55.9902 40.252 57.1872 41.6332 58.7082 42.5705Z" fill="#E5D4CC"/>
    <path d="M79.2584 71.2539C78.4694 69.03 77.4324 66.9019 76.167 64.9101C75.2079 63.3352 74.0241 61.9087 72.6531 60.6756C71.4001 59.5936 69.9597 58.7498 68.4031 58.186C66.8922 57.6396 65.2101 57.3697 63.6825 57.8679C62.1551 58.3661 60.8556 59.7864 60.8865 61.3928C60.9208 63.1689 62.4748 64.5581 64.0945 65.2879C65.7142 66.0177 67.5159 66.3354 69.044 67.2414C70.0829 67.8715 70.9512 68.7472 71.5725 69.7915C72.1938 70.8358 72.549 72.0167 72.607 73.2304L72.9919 73.8669C72.12 74.1557 71.3068 74.5984 70.591 75.174C70.2365 75.4666 69.9655 75.8475 69.8054 76.2783C69.6453 76.7091 69.6018 77.1746 69.6792 77.6277C69.9462 78.7032 71.0444 79.3205 72.0375 79.8123C73.8724 80.7211 75.7074 81.6299 77.5423 82.5387C76.608 79.7527 79.6669 77.1603 79.8361 74.2267C79.8426 73.2073 79.6462 72.1967 79.2584 71.2539Z" fill="#E5D4CC"/>
    <path d="M33.1195 63.7319C34.2326 64.5963 35.944 64.192 36.9638 63.2191C37.9835 62.2463 38.4801 60.8619 38.9433 59.5309C38.7742 60.8483 38.7902 62.183 38.9909 63.4961C39.0954 64.1527 39.3352 64.7804 39.6949 65.3395C40.0546 65.8987 40.5265 66.3771 41.0807 66.7444C41.5838 67.0204 42.1262 67.2179 42.6891 67.33C45.3056 67.9254 48.04 67.7301 50.5452 66.7687L50.5677 65.912C49.3092 66.0556 48.3568 64.6753 48.2737 63.4113C48.1906 62.1473 48.6493 60.9077 48.6897 59.6417C48.73 58.3756 48.1198 56.8964 46.8733 56.6711C47.0914 57.1093 47.171 57.6035 47.1014 58.088C47.0317 58.5725 46.8162 59.0243 46.4835 59.3833C46.1507 59.7423 45.7165 59.9914 45.2387 60.0976C44.7609 60.2037 44.262 60.1618 43.8086 59.9775C42.3658 59.3909 41.8416 57.6331 40.7266 56.5456C40.0377 55.9328 39.1829 55.5373 38.2698 55.4089C37.3568 55.2804 36.4261 55.4248 35.5948 55.8238C34.7741 56.2426 34.0541 56.8346 33.4846 57.5588C32.9151 58.2831 32.5096 59.1224 32.2961 60.0187C31.9575 61.3193 32.058 62.9076 33.1195 63.7319Z" fill="#E5D4CC"/>
    <path d="M67.4729 54.7111L67.5246 54.6272C67.2138 53.7299 66.2506 53.2037 65.3105 53.0702C64.3627 53.0077 63.4111 53.0391 62.4695 53.1641C61.5193 53.287 60.5559 53.0748 59.7453 52.5641C59.0981 52.0803 58.7294 51.3191 58.2121 50.6984C57.6947 50.0778 56.8573 49.5673 56.1058 49.8641C55.2921 50.1854 55.0751 51.3259 55.4699 52.1065C55.9351 52.8557 56.6368 53.4285 57.464 53.7341C60.5966 55.172 64.1214 55.5161 67.4729 54.7111Z" fill="#E5D4CC"/>
    <path d="M56.7799 57.4008C56.5197 57.5914 56.3433 57.8753 56.2876 58.1931C56.2319 58.5108 56.3012 58.8378 56.481 59.1056C56.6609 59.3734 56.9373 59.5612 57.2525 59.6299C57.5677 59.6985 57.8973 59.6426 58.1722 59.4738L58.4467 59.7448C58.8118 59.091 58.9623 58.2151 58.4955 57.6297C58.2879 57.387 57.998 57.2294 57.6815 57.1872C57.3649 57.1449 57.0439 57.221 56.7799 57.4008Z" fill="#E5D4CC"/>
    <path d="M53.5675 59.7465C53.5715 59.5129 53.5047 59.2836 53.3759 59.0887C53.2471 58.8938 53.0623 58.7425 52.8459 58.6546C52.6985 58.6293 52.5476 58.6342 52.4021 58.6688C52.2567 58.7034 52.1197 58.767 51.9996 58.856C51.8794 58.9449 51.7785 59.0573 51.7029 59.1862C51.6273 59.3152 51.5785 59.4582 51.5597 59.6065C51.537 59.9086 51.5767 60.2121 51.6763 60.4982C51.7759 60.7844 51.9332 61.047 52.1386 61.2697C52.2581 61.4492 52.4142 61.6012 52.5967 61.7159C52.7793 61.8306 52.984 61.9053 53.1975 61.935C53.6277 61.9491 54.0664 61.4993 53.8919 61.1058L53.235 61.093C53.4374 60.6718 53.5506 60.2134 53.5675 59.7465Z" fill="#E5D4CC"/>
    <path d="M40.7218 53.0187C40.963 53.2142 41.2043 53.4097 41.4455 53.6053C41.8634 53.9665 42.3148 54.287 42.7936 54.5624C43.631 55.0263 44.6159 55.1469 45.5406 54.8987C45.9971 54.7685 46.4134 54.5255 46.7513 54.1921C47.0892 53.8587 47.3377 53.4456 47.4739 52.9908C47.7624 51.9039 47.2919 50.7754 46.8314 49.7494C46.7263 49.4559 46.5529 49.1915 46.3255 48.9781C46.209 48.8749 46.0604 48.8152 45.9049 48.8091C45.7494 48.803 45.5965 48.8509 45.4723 48.9446C45.3822 49.0568 45.3223 49.1902 45.2982 49.3321C45.2742 49.4739 45.2868 49.6196 45.3349 49.7552C45.4339 50.0255 45.4792 50.3125 45.4681 50.6001C45.4223 50.8838 45.1245 51.152 44.8622 51.0346L44.8204 52.0003C43.5678 51.3663 42.9054 49.6797 41.5114 49.5134C41.1985 49.476 40.8814 49.5254 40.5946 49.6559C40.3079 49.7865 40.0625 49.9933 39.8852 50.2538C39.708 50.5143 39.6057 50.8185 39.5894 51.1331C39.5732 51.4478 39.6437 51.7609 39.7933 52.0382C40.0353 52.4229 40.3508 52.7561 40.7218 53.0187Z" fill="#E5D4CC"/>
    <path d="M37.7383 48.8497C38.0281 48.6511 38.2573 48.3763 38.4008 48.0556C38.5443 47.7349 38.5965 47.3808 38.5516 47.0324C38.5169 46.8636 38.4454 46.7046 38.3423 46.5666C38.2392 46.4285 38.1069 46.3149 37.9549 46.2338C37.8029 46.1527 37.6349 46.1061 37.4629 46.0972C37.2908 46.0884 37.1189 46.1176 36.9594 46.1827C36.6015 46.4503 36.3501 46.8361 36.2499 47.2716C35.9198 48.2028 35.5897 49.134 35.2595 50.0652L35.8144 49.6615C36.5008 49.5137 37.1534 49.2383 37.7383 48.8497Z" fill="#E5D4CC"/>
    <path d="M44.1679 43.1347C44.2671 43.0097 44.3376 42.8645 44.3745 42.7093C44.4115 42.5541 44.414 42.3927 44.3818 42.2364C44.3497 42.0801 44.2837 41.9328 44.1885 41.8048C44.0932 41.6768 43.9711 41.5712 43.8307 41.4955L43.1369 41.4307C42.9792 41.4706 42.833 41.547 42.7101 41.6536C42.5872 41.7602 42.491 41.8942 42.4292 42.0448C42.3675 42.1953 42.3419 42.3582 42.3544 42.5204C42.367 42.6827 42.4174 42.8397 42.5017 42.9789C42.5859 43.1181 42.7016 43.2357 42.8395 43.3221C42.9773 43.4085 43.1336 43.4614 43.2956 43.4766C43.4576 43.4917 43.6209 43.4687 43.7724 43.4093C43.9239 43.3499 44.0594 43.2559 44.1679 43.1347Z" fill="#E5D4CC"/>
    <path d="M50.5507 44.2056C51.1981 44.5154 52.0176 44.8105 52.5808 44.3658C52.7476 44.2148 52.8717 44.0225 52.9405 43.8083C53.0094 43.5941 53.0205 43.3655 52.9729 43.1456C52.8718 42.7069 52.6765 42.2954 52.4004 41.9398C51.5391 40.7032 50.4448 39.6466 49.1789 38.8291L48.8659 39.2358C48.4287 40.3711 48.0065 41.6964 48.6163 42.7491C49.0275 43.4587 49.8108 43.8517 50.5507 44.2056Z" fill="#E5D4CC"/>
    <path d="M55.3735 45.2161L56.5841 45.7637C56.4654 45.5568 56.2846 45.3925 56.0673 45.2943C55.85 45.196 55.6073 45.1686 55.3735 45.2161Z" fill="#E5D4CC"/>
    <path d="M52.1111 49.0251L51.539 49.2136C51.0526 50.013 51.2637 51.0351 51.4899 51.943C51.633 52.517 51.9415 53.2233 52.5324 53.1972C53.1075 53.1718 53.3619 52.4746 53.4723 51.9096C53.6445 51.2959 53.6632 50.6493 53.5267 50.0267C53.4487 49.7185 53.2633 49.4482 53.0038 49.2646C52.7442 49.081 52.4277 48.996 52.1111 49.0251Z" fill="#E5D4CC"/>
    <path d="M42.9887 46.3347L43.412 46.5052C43.5112 46.491 43.603 46.4445 43.6731 46.3729C43.7433 46.3012 43.7878 46.2085 43.7999 46.109C43.8119 46.0094 43.7908 45.9087 43.7398 45.8224C43.6888 45.7361 43.6108 45.6691 43.5178 45.6316C43.4248 45.5942 43.3221 45.5884 43.2255 45.6153C43.1289 45.6422 43.0439 45.7002 42.9836 45.7803C42.9234 45.8604 42.8912 45.9581 42.8921 46.0584C42.893 46.1586 42.927 46.2557 42.9887 46.3347Z" fill="#E5D4CC"/>
    <path d="M64.3278 78.7003C64.1228 78.7049 63.9218 78.7584 63.7416 78.8564C63.5615 78.9544 63.4074 79.0941 63.2922 79.2638C63.177 79.4335 63.104 79.6282 63.0794 79.8319C63.0547 80.0355 63.0792 80.242 63.1506 80.4343C63.5663 81.3294 64.9978 81.3332 65.634 80.5787C65.7969 80.3644 65.9137 80.1186 65.9769 79.8569C66.04 79.5952 66.0483 79.3232 66.0011 79.0581C65.9539 78.7931 65.8522 78.5407 65.7025 78.3169C65.5529 78.093 65.3585 77.9027 65.1315 77.7578L64.3278 78.7003Z" fill="#E5D4CC"/>
    <path d="M84.9458 99.9033C84.7794 99.9476 84.6236 100.025 84.4876 100.131C84.3516 100.236 84.2381 100.368 84.1539 100.518C84.0698 100.668 84.0165 100.834 83.9974 101.005C83.9784 101.176 83.9938 101.349 84.0428 101.515L85.2312 101.597C85.6336 101.395 86.0361 101.193 86.4385 100.991C86.4142 100.821 86.3559 100.657 86.2672 100.509C86.1785 100.362 86.061 100.233 85.9219 100.132C85.7827 100.03 85.6246 99.958 85.457 99.9187C85.2893 99.8794 85.1155 99.8742 84.9458 99.9033Z" fill="#E5D4CC"/>
    <path d="M80.115 101.374C79.775 101.615 79.5021 101.939 79.322 102.315C79.1419 102.691 79.0605 103.107 79.0855 103.523C79.1242 103.939 79.294 104.331 79.5704 104.643C79.8468 104.955 80.2154 105.172 80.6229 105.261C81.0342 105.325 81.4547 105.231 81.7993 104.997C82.1439 104.764 82.3868 104.408 82.479 104.002C82.68 102.773 81.3589 101.872 80.8842 100.721L80.115 101.374Z" fill="#E5D4CC"/>
    <path d="M126.273 93.2548C126.399 94.1776 125.567 94.986 125.536 95.9168C125.5 97.0212 126.702 97.8804 127.801 97.772C128.347 97.6774 128.864 97.4575 129.31 97.1295C129.757 96.8016 130.121 96.3746 130.374 95.882L130.398 95.7785C129.862 95.1731 129.327 94.5677 128.791 93.9623C128.133 93.2189 127.436 92.3726 127.462 91.3803C127.475 90.8911 127.667 90.4171 127.657 89.9278C127.631 89.5759 127.552 89.2298 127.424 88.9013C127.279 88.4684 127.081 87.9807 126.649 87.8346C126.107 87.6517 125.561 88.1315 125.303 88.6411C125.07 89.1111 124.957 89.6312 124.974 90.1553C124.99 90.6794 125.136 91.1913 125.397 91.6459C125.71 92.177 126.19 92.6441 126.273 93.2548Z" fill="#E5D4CC"/>
    <path d="M121.222 96.5013C121.339 96.5645 121.469 96.6017 121.601 96.6102C121.734 96.6187 121.867 96.5984 121.992 96.5506C122.469 96.4693 122.928 96.3026 123.346 96.0586C123.553 95.9337 123.724 95.756 123.841 95.5435C123.957 95.331 124.015 95.0914 124.008 94.8492C123.936 94.5447 123.775 94.2685 123.545 94.0555C123.316 93.8425 123.029 93.7024 122.72 93.6528C122.505 93.5773 122.275 93.5558 122.051 93.5901C121.826 93.6245 121.613 93.7136 121.431 93.8497C121.032 94.2241 121.079 94.8595 121.157 95.4011L121.073 95.5422C120.998 95.8767 120.95 96.2926 121.222 96.5013Z" fill="#E5D4CC"/>
    <path d="M205.53 135.94C205.414 135.651 205.298 135.363 205.182 135.075C205.023 135.466 205.082 135.867 205.53 135.94Z" fill="#E5D4CC"/>
    <path d="M275.074 75.3423C273.587 73.7293 272.676 72.7993 271.738 70.8C271.227 69.6973 270.451 68.7383 269.479 68.0085C268.507 67.2787 267.37 66.8009 266.169 66.6178C263.084 66.1097 259.933 66.9143 256.811 66.7531C251.811 66.4948 247.302 63.8129 242.514 62.3501C239.832 61.5989 237.102 61.0358 234.343 60.6649C232.753 60.4134 231.163 60.162 229.572 59.9105C224.36 59.0863 219.115 58.2596 213.839 58.369C212.318 58.4006 210.199 57.9434 210.321 56.4266C210.472 54.5428 213.861 54.7901 214.513 53.0163C214.916 51.9189 213.951 50.7668 212.893 50.2707C211.834 49.7745 210.612 49.6253 209.651 48.9591C208.691 48.293 208.164 46.7487 209.047 45.9824C206.6 47.237 204.152 48.4917 201.705 49.7463C199.67 50.7894 197.397 52.1465 197.038 54.4046C195.811 54.7286 194.738 55.474 194.007 56.51C192.63 56.5172 191.549 57.8389 191.321 59.1967C191.094 60.5545 191.507 61.9287 191.915 63.2435C191.416 62.2871 190.885 61.2941 190.005 60.67C189.125 60.0458 187.785 59.927 187.035 60.7023C186.265 61.4979 186.445 62.8328 186.99 63.7967C187.534 64.7606 188.371 65.5387 188.885 66.5194C190.49 69.5823 187.582 73.8945 184.14 73.5533C184.371 70.3905 184.602 67.2277 184.833 64.0649C184.979 63.0921 184.897 62.0985 184.594 61.1627C184.219 60.2573 183.257 59.5137 182.301 59.7275C180.581 60.1119 180.728 62.6313 181.443 64.2418C182.159 65.8524 182.872 68.0922 181.412 69.0785C180.468 69.7154 179.19 69.3221 178.171 68.8136C177.153 68.3052 176.064 67.6787 174.951 67.9162C173.838 68.1537 173.138 69.8551 174.121 70.428C172.491 70.1446 170.86 69.8612 169.229 69.5778C169.148 70.0578 168.968 70.5156 168.699 70.9215C168.43 71.3274 168.079 71.6724 167.669 71.9343C167.259 72.1961 166.798 72.3689 166.317 72.4415C165.835 72.5142 165.344 72.485 164.875 72.356C164.714 71.6925 164.554 71.029 164.394 70.3655C164.156 70.2991 163.917 70.2327 163.678 70.1662C164.427 70.3748 163.255 73.5339 162.205 75.9472C160.792 75.7815 158.728 75.7496 158.492 75.3449C157.365 73.4066 157.498 68.7898 155.539 67.6994C154.556 67.1525 153.548 66.6542 152.516 66.2045C151.973 65.9463 151.4 65.7581 150.81 65.6444C149.606 65.4548 148.393 65.828 147.232 66.1968C145.86 66.6325 144.456 67.0847 143.32 67.969C142.35 68.8105 141.518 69.7995 140.855 70.8997C138.612 74.2196 136.369 77.5395 134.126 80.8594C133.457 81.746 132.932 82.7314 132.567 83.7802C132.395 84.3017 132.338 84.8541 132.399 85.3997C132.461 85.9453 132.639 86.4713 132.922 86.9417C133.221 87.4028 133.665 87.7502 134.185 87.9277C134.705 88.1053 135.269 88.1029 135.787 87.9208C136.438 87.6393 137.089 87.0015 137.733 87.2961C138.221 87.5192 138.343 88.1605 138.292 88.6946C138.168 89.2175 138.158 89.7611 138.263 90.2881C138.556 91.1195 139.685 91.4088 140.49 91.049C141.272 90.622 141.859 89.9081 142.125 89.0575C142.901 87.0685 142.822 84.8678 143.015 82.7417C143.208 80.6157 143.789 78.3417 145.465 77.0197C145.967 76.624 146.704 76.3388 147.221 76.7151C147.414 76.8909 147.548 77.1226 147.603 77.378C147.659 77.6334 147.633 77.8997 147.529 78.1397C147.313 78.6147 147.032 79.057 146.693 79.4538C146.12 80.2595 145.719 81.1744 145.516 82.1417C145.312 83.109 145.309 84.1079 145.508 85.0762L145.851 85.2882C147.158 84.9492 148.907 85.5562 150.642 86.1383C149.382 86.5128 148.273 87.2756 147.473 88.3179C145.467 91.132 144.016 93.7951 140.048 93.7616C139.107 93.7537 138.173 93.5676 137.232 93.5656C136.282 93.5069 135.346 93.8186 134.621 94.4352C133.907 95.1339 133.687 96.1978 133.076 96.9882C132.274 98.0275 130.932 98.4501 129.706 98.9222C128.811 99.2671 127.867 99.7324 127.455 100.599C127.197 101.31 127.137 102.078 127.283 102.821C127.421 104.134 127.665 105.627 128.779 106.336C129.195 106.553 129.651 106.685 130.119 106.725C130.587 106.765 131.059 106.711 131.506 106.566C132.664 106.285 133.797 105.754 134.987 105.833C136.855 105.958 138.393 107.751 138.412 109.623C138.422 110.571 138.145 111.658 138.773 112.367C139.364 113.034 140.534 112.915 141.146 112.268C141.43 111.923 141.626 111.515 141.716 111.077C141.805 110.64 141.787 110.187 141.661 109.758C141.401 108.905 141.002 108.1 140.479 107.377C141.101 107.216 141.759 107.275 142.342 107.545C142.925 107.814 143.397 108.278 143.677 108.856C144.092 109.777 143.958 110.841 144.09 111.843C144.223 112.846 144.833 113.959 145.842 114.017C146.172 114.026 146.495 113.92 146.755 113.716C147.014 113.512 147.194 113.224 147.264 112.901C147.274 112.393 147.247 111.884 147.181 111.379C147.215 110.883 147.439 110.418 147.805 110.081C148.171 109.744 148.652 109.559 149.15 109.565C148.843 110.133 148.743 110.789 148.867 111.422C148.991 112.055 149.332 112.625 149.831 113.035C150.599 113.629 151.614 113.762 152.571 113.928C153.528 114.094 154.548 114.357 155.166 115.106C156.194 116.355 154.936 116.917 154.74 117.974C154.499 119.272 155.584 121.189 156 122.431C157.914 125.108 159.828 127.786 161.742 130.463C162.169 131.114 162.673 131.711 163.242 132.242C165.131 133.865 168.246 133.705 170.058 131.996C170.936 131.107 171.506 129.96 171.685 128.724C171.864 127.487 171.641 126.226 171.05 125.125C169.93 123.087 167.712 121.824 166.616 119.773C168.44 121.283 170.678 122.203 173.036 122.413C177.208 123.261 181.171 124.923 184.699 127.305C184.865 130.991 186.279 134.511 188.71 137.288C189.147 134.142 190.614 131.229 192.881 129.005C194.355 127.567 196.37 126.407 198.393 126.794C200.416 127.181 201.95 129.76 200.727 131.417C201.752 131.493 202.777 131.569 203.802 131.646C204.262 132.789 204.722 133.932 205.182 135.075C205.264 134.835 205.42 134.627 205.629 134.482C205.837 134.338 206.086 134.264 206.34 134.271C207.3 134.416 207.973 135.309 208.886 135.638C210.607 136.26 212.446 134.538 212.669 132.722C212.892 130.906 212.028 129.153 211.188 127.527C213.042 127.87 214.956 127.666 216.696 126.938C218.436 126.21 219.925 124.991 220.983 123.43C222.04 121.869 222.619 120.033 222.649 118.147C222.679 116.262 222.159 114.409 221.152 112.814C223.147 110.719 225.495 108.99 228.089 107.708C230.489 106.522 233.114 105.708 235.212 104.045C237.309 102.381 238.78 99.4933 237.771 97.0137C237.058 95.262 235.271 94.0732 234.736 92.2593C233.961 89.6336 236.314 86.9177 238.972 86.2617C241.63 85.6057 244.405 86.412 247.023 87.212C246.621 84.518 249.744 81.9925 252.294 82.9491C253.362 82.5166 254.43 82.0841 255.498 81.6516C254.26 84.3815 251.577 86.1182 249.604 88.375C247.632 90.6317 246.457 94.3068 248.518 96.4834C251.471 93.8061 254.425 91.1288 257.379 88.4515C260.469 85.651 263.559 82.8505 266.649 80.0501C266.501 79.6167 266.353 79.1833 266.206 78.7499C269.129 77.6396 272.278 76.7212 275.074 75.3423Z" fill="#E5D4CC"/>
    <path d="M121.646 111.375C121.527 111.547 121.463 111.751 121.464 111.96C121.465 112.17 121.531 112.374 121.652 112.544C121.81 112.679 122.011 112.754 122.219 112.757C122.427 112.76 122.63 112.69 122.792 112.559C123.11 112.289 123.357 111.946 123.515 111.559C123.668 111.856 123.909 112.099 124.205 112.254C124.501 112.409 124.838 112.469 125.169 112.426C125.831 112.326 126.458 112.065 126.995 111.665C127.42 111.415 127.796 111.089 128.103 110.703C128.255 110.508 128.359 110.281 128.408 110.039C128.456 109.797 128.447 109.547 128.382 109.309C128.223 108.944 127.975 108.625 127.662 108.379C126.88 107.657 126.098 106.935 125.317 106.213L125.052 106.134C124.914 105.987 124.748 105.87 124.564 105.789C124.379 105.708 124.18 105.665 123.979 105.663C123.778 105.661 123.578 105.7 123.392 105.777C123.206 105.853 123.038 105.967 122.897 106.111C122.411 106.654 122.409 107.466 122.483 108.191C122.558 108.915 122.673 109.688 122.35 110.341C122.165 110.715 121.852 111.012 121.646 111.375Z" fill="#E5D4CC"/>
    <path d="M166.995 136.038C163.958 135.362 161.177 133.83 158.982 131.624C156.788 129.418 155.27 126.63 154.61 123.589C154.322 122.154 154.191 120.586 153.236 119.477C152.312 118.402 150.802 118.015 149.385 118.015C147.968 118.015 146.572 118.341 145.157 118.429C142.685 118.584 140.065 117.93 138.297 116.195C137.459 115.373 136.826 114.33 135.848 113.682C134.533 112.811 132.791 112.811 131.293 113.305C129.625 113.855 128.29 115.359 126.467 115.152C124.57 114.936 122.371 114.266 121.628 116.764C121.414 117.483 121.487 118.271 121.215 118.971C120.798 120.049 119.688 120.657 118.811 121.41C117.043 122.928 116.104 125.232 115.787 127.54C115.471 129.848 115.716 132.192 115.961 134.508C116.093 135.757 116.267 137.102 117.125 138.02C118.321 139.299 120.329 139.249 122.074 139.105C124.102 138.938 126.13 138.77 128.158 138.603C129.251 138.513 130.496 138.474 131.275 139.247C131.741 139.71 131.938 140.38 132.348 140.894C132.716 141.331 133.222 141.63 133.782 141.743C134.342 141.856 134.924 141.776 135.433 141.516C135.022 142.251 134.798 143.075 134.781 143.917C134.764 144.759 134.955 145.591 135.337 146.342C135.719 147.092 136.281 147.736 136.971 148.218C137.661 148.7 138.46 149.004 139.296 149.103L139.452 149.202C138.154 151.425 136.807 153.921 137.345 156.439C137.807 158.597 139.595 160.328 139.887 162.516C140.155 164.523 139.108 166.576 139.571 168.548C140.041 170.544 142.057 171.936 144.102 172.085C146.148 172.234 148.158 171.326 149.742 170.024C151.327 168.722 152.552 167.044 153.759 165.386C154.505 164.363 155.269 163.297 155.525 162.057C155.797 160.737 155.481 159.275 156.123 158.09C156.863 156.723 158.62 156.211 159.507 154.935C160.655 153.282 159.979 151.032 160.232 149.035C160.861 144.095 167.138 141.016 166.995 136.038Z" fill="#E5D4CC"/>
    <path d="M166.088 152.904C165.917 153.675 165.195 154.183 164.506 154.572C163.818 154.96 163.061 155.352 162.71 156.06C162.351 156.785 162.515 157.649 162.703 158.437C163.094 160.074 163.554 161.694 164.084 163.294C165.111 161.353 166.008 159.346 166.769 157.286C167.091 156.52 167.29 155.707 167.358 154.878C167.389 154.463 167.333 154.046 167.194 153.654C167.054 153.262 166.834 152.903 166.548 152.602L166.088 152.904Z" fill="#E5D4CC"/>
    <path d="M208.33 144.312C207.467 143.316 206.604 142.32 205.742 141.324C205.152 140.644 204.479 139.916 203.586 139.803L203.218 140.038C203.966 141.818 204.713 143.599 205.461 145.38C205.726 146.193 206.192 146.926 206.816 147.511C207.486 148.037 208.571 148.138 209.129 147.495C209.309 147.254 209.423 146.97 209.458 146.671C209.494 146.373 209.45 146.07 209.332 145.793C209.089 145.244 208.749 144.742 208.33 144.312Z" fill="#E5D4CC"/>
    <path d="M216.687 146.218C217.013 146.105 217.312 145.925 217.564 145.69C217.817 145.455 218.017 145.169 218.153 144.852C218.42 144.216 218.597 143.546 218.677 142.862C218.825 141.97 218.972 141.078 219.12 140.187L218.927 140.137C218.739 140.047 218.526 140.028 218.326 140.084C218.125 140.14 217.952 140.266 217.838 140.439C217.621 140.793 217.456 141.177 217.35 141.579C217.295 141.78 217.196 141.965 217.06 142.122C216.923 142.279 216.753 142.403 216.562 142.485C215.87 142.694 215.214 141.96 214.491 141.989C214.199 142.026 213.928 142.161 213.723 142.372C213.518 142.583 213.39 142.857 213.36 143.15C213.318 143.741 213.486 144.328 213.833 144.808C214.45 145.764 215.593 146.533 216.687 146.218Z" fill="#E5D4CC"/>
    <path d="M221.456 147.908L223.443 142.673C222.638 143.257 222.021 144.064 221.668 144.994C221.315 145.924 221.241 146.937 221.456 147.908Z" fill="#E5D4CC"/>
    <path d="M231.6 143.688L231.198 143.706C231.018 144.061 230.923 144.453 230.919 144.851C230.915 145.249 231.003 145.643 231.176 146.001C231.529 146.716 232.042 147.34 232.676 147.824C233.658 148.635 234.778 149.261 235.984 149.671C237.751 150.187 239.579 150.469 241.42 150.509C242.472 150.578 243.524 150.646 244.576 150.715C245.078 150.748 245.726 150.684 245.865 150.202C245.98 149.803 245.641 149.429 245.324 149.161C242.54 146.818 239.165 145.287 235.568 144.733C234.204 144.526 232.757 144.441 231.6 143.688Z" fill="#E5D4CC"/>
    <path d="M242.832 157.582C242.075 156.848 241.319 156.114 240.562 155.38C239.826 154.667 238.723 153.91 237.88 154.493C237.395 154.828 237.245 155.481 236.835 155.903C236.584 156.128 236.282 156.286 235.955 156.364C235.628 156.442 235.287 156.437 234.963 156.349C234.316 156.168 233.705 155.878 233.156 155.493L231.278 154.327C230.63 153.925 229.982 153.523 229.334 153.121L227.871 154.542C227.935 153.843 227.003 153.388 226.357 153.665C226.05 153.837 225.786 154.076 225.584 154.364C225.383 154.653 225.249 154.983 225.192 155.33C225.085 156.024 224.897 156.703 224.633 157.354C223.891 158.776 222.088 159.197 220.502 159.435C218.916 159.673 217.119 160.008 216.271 161.369C215.564 162.502 215.775 163.957 216.012 165.272L216.905 170.246C216.948 170.849 217.189 171.42 217.592 171.87C218.378 172.563 219.594 172.142 220.552 171.719C222.556 170.755 224.705 170.132 226.913 169.875C229.141 169.626 231.382 170.2 233.216 171.49C234.352 172.355 235.219 173.553 236.423 174.322C237.253 174.821 238.185 175.124 239.15 175.208C240.114 175.292 241.085 175.155 241.988 174.807C243.799 174.086 245.298 172.75 246.221 171.033C247.04 169.519 247.451 167.818 247.414 166.097C247.376 164.376 246.892 162.695 246.007 161.218C245.104 159.879 244.037 158.657 242.832 157.582Z" fill="#E5D4CC"/>
    <path d="M240.601 177.846C240.419 178.067 240.313 178.34 240.298 178.625C240.283 178.91 240.359 179.193 240.516 179.431C240.846 179.904 241.348 180.227 241.915 180.332C242.476 180.432 243.048 180.459 243.616 180.41L243.634 179.985C243.482 179.241 243.139 178.548 242.637 177.977C242.089 177.456 241.12 177.296 240.601 177.846Z" fill="#E5D4CC"/>
    <path d="M260.088 178.3L259.817 178.201C259.171 179.174 258.526 180.148 257.88 181.121C257.532 181.645 257.17 182.274 257.382 182.865C257.633 183.565 258.56 183.771 259.281 183.586C259.83 183.436 260.326 183.133 260.71 182.712C261.094 182.291 261.349 181.769 261.447 181.208C261.526 180.644 261.44 180.069 261.199 179.553C260.958 179.036 260.572 178.601 260.088 178.3Z" fill="#E5D4CC"/>
    <path d="M265.011 175.211L263.228 173.794C263.204 174.451 263.181 175.109 263.157 175.766L263.09 175.768C263.501 176.128 263.889 176.514 264.252 176.923C264.669 177.278 265.369 177.44 265.726 177.024C265.833 176.876 265.893 176.699 265.9 176.516C265.907 176.333 265.86 176.152 265.764 175.995C265.568 175.686 265.312 175.42 265.011 175.211Z" fill="#E5D4CC"/>
    <path d="M232.804 113.554C232.056 113.53 231.228 113.485 230.649 113.958C230.458 114.128 230.291 114.323 230.151 114.538L229.947 114.824C229.641 115.224 229.374 115.653 229.15 116.105C229.033 116.316 228.963 116.55 228.945 116.791C228.926 117.033 228.959 117.275 229.042 117.502C229.09 117.61 229.161 117.707 229.251 117.785C229.34 117.863 229.445 117.92 229.559 117.953C229.673 117.986 229.793 117.993 229.91 117.974C230.028 117.956 230.139 117.912 230.237 117.845C230.557 117.549 230.483 117.012 230.724 116.649C230.831 116.512 230.967 116.402 231.124 116.328C231.28 116.253 231.451 116.216 231.624 116.219C231.97 116.227 232.314 116.266 232.652 116.335C233.59 116.463 234.545 116.321 235.404 115.924C236.263 115.527 236.991 114.893 237.502 114.095C238.012 113.298 238.283 112.372 238.284 111.425C238.285 110.479 238.015 109.552 237.505 108.754L237.445 108.57C236.927 108.55 236.419 108.713 236.008 109.029C235.598 109.346 235.311 109.796 235.198 110.302C235.031 111.173 235.386 112.186 234.857 112.899C234.412 113.5 233.552 113.577 232.804 113.554Z" fill="#E5D4CC"/>
    <path d="M239.501 104.313L239.387 104.303C238.718 104.425 238.075 104.664 237.49 105.01C237.297 105.099 237.144 105.255 237.057 105.448C237.032 105.551 237.032 105.658 237.059 105.76C237.085 105.863 237.136 105.957 237.208 106.035C237.354 106.188 237.524 106.316 237.711 106.413C237.991 106.6 238.3 106.738 238.625 106.822C238.789 106.863 238.96 106.862 239.123 106.82C239.285 106.777 239.435 106.696 239.559 106.581C239.674 106.422 239.754 106.24 239.792 106.047C239.83 105.854 239.825 105.655 239.778 105.464C239.724 105.072 239.631 104.686 239.501 104.313Z" fill="#E5D4CC"/>
    <path d="M227.971 113.776C228.15 113.489 228.277 113.173 228.346 112.843C228.416 112.586 228.486 112.33 228.556 112.073L227.81 111.62C227.454 111.806 227.125 112.04 226.834 112.316C226.689 112.455 226.574 112.623 226.497 112.808C226.42 112.994 226.382 113.193 226.386 113.394C226.396 113.595 226.474 113.787 226.607 113.938C226.74 114.088 226.92 114.19 227.118 114.225C227.287 114.23 227.454 114.192 227.604 114.113C227.753 114.034 227.88 113.918 227.971 113.776Z" fill="#E5D4CC"/>
    <path d="M146.74 44.4342C146.445 44.618 146.528 45.0623 146.648 45.3885C146.785 45.7631 146.922 46.1376 147.06 46.5121L147.252 45.7851C147.421 45.5031 147.495 45.1747 147.464 44.8475C147.398 44.5279 147.017 44.2616 146.74 44.4342Z" fill="#E5D4CC"/>
    <path d="M332.91 111.9H208.193C205.187 111.897 202.306 110.701 200.18 108.576C198.054 106.45 196.859 103.568 196.855 100.562V11.3379C196.859 8.33195 198.055 5.45009 200.18 3.32457C202.306 1.19904 205.187 0.00341963 208.193 0H332.91C335.916 0.00341833 338.798 1.19904 340.924 3.32457C343.049 5.45009 344.245 8.33195 344.248 11.3379V100.562C344.245 103.568 343.049 106.45 340.924 108.576C338.798 110.701 335.916 111.897 332.91 111.9Z" fill="#FFFFFF"/>
    <path d="M332.91 111.9H208.193C205.187 111.897 202.306 110.701 200.18 108.576C198.054 106.45 196.859 103.568 196.855 100.562V11.3379C196.859 8.33195 198.055 5.45009 200.18 3.32457C202.306 1.19904 205.187 0.00341963 208.193 0H332.91C335.916 0.00341833 338.798 1.19904 340.924 3.32457C343.049 5.45009 344.245 8.33195 344.248 11.3379V100.562C344.245 103.568 343.049 106.45 340.924 108.576C338.798 110.701 335.916 111.897 332.91 111.9ZM208.193 0.985904C205.449 0.988982 202.818 2.08062 200.877 4.02133C198.936 5.96204 197.844 8.59332 197.841 11.3379V100.562C197.844 103.307 198.936 105.938 200.877 107.879C202.818 109.819 205.449 110.911 208.193 110.914H332.91C335.655 110.911 338.286 109.819 340.227 107.879C342.167 105.938 343.259 103.307 343.262 100.562V11.3379C343.259 8.59332 342.167 5.96204 340.227 4.02133C338.286 2.08062 335.655 0.988982 332.91 0.985904H208.193Z" fill="#C39B89"/>
    <path d="M242.125 13.5852H222.407C221.884 13.5852 221.383 13.3775 221.013 13.0077C220.643 12.6379 220.436 12.1364 220.436 11.6134C220.436 11.0905 220.643 10.5889 221.013 10.2191C221.383 9.84934 221.884 9.6416 222.407 9.6416H242.125C242.648 9.6416 243.15 9.84934 243.52 10.2191C243.889 10.5889 244.097 11.0905 244.097 11.6134C244.097 12.1364 243.889 12.6379 243.52 13.0077C243.15 13.3775 242.648 13.5852 242.125 13.5852Z" fill="#E5D4CC"/>
    <path d="M285.012 57.9514H222.407C221.884 57.9514 221.383 57.7437 221.013 57.3739C220.643 57.0041 220.436 56.5026 220.436 55.9796C220.436 55.4567 220.643 54.9551 221.013 54.5853C221.383 54.2156 221.884 54.0078 222.407 54.0078H285.012C285.535 54.0078 286.037 54.2156 286.406 54.5853C286.776 54.9551 286.984 55.4567 286.984 55.9796C286.984 56.5026 286.776 57.0041 286.406 57.3739C286.037 57.7437 285.535 57.9514 285.012 57.9514Z" fill="#E5D4CC"/>
    <path d="M233.497 45.5034C240.798 45.5034 246.717 39.5844 246.717 32.2829C246.717 24.9815 240.798 19.0625 233.497 19.0625C226.195 19.0625 220.276 24.9815 220.276 32.2829C220.276 39.5844 226.195 45.5034 233.497 45.5034Z" fill="#FF701A"/>
    <path d="M223.393 95.6064H220.436V96.5923H223.393V95.6064Z" fill="#98664D"/>
    <path d="M310.236 96.5923H304.033V95.6064H310.236V96.5923ZM297.83 96.5923H291.627V95.6064H297.83V96.5923ZM285.424 96.5923H279.22V95.6064H285.424V96.5923ZM273.018 96.5923H266.815V95.6064H273.018L273.018 96.5923ZM260.611 96.5923H254.408V95.6064H260.611V96.5923ZM248.205 96.5923H242.002V95.6064H248.205L248.205 96.5923ZM235.799 96.5923H229.596V95.6064H235.799V96.5923Z" fill="#98664D"/>
    <path d="M319.397 95.6064H316.439V96.5923H319.397V95.6064Z" fill="#98664D"/>
    <path d="M270.637 78.1621H268.172V94.9225H270.637V78.1621Z" fill="#FF701A"/>
    <path d="M258.637 82.1621H256.172V94.9221H258.637V82.1621Z" fill="#FF701A"/>
    <path d="M246.637 90.5078H244.172V94.9221H246.637V90.5078Z" fill="#FF701A"/>
    <path d="M295.778 78.1621H293.313V94.9225H295.778V78.1621Z" fill="#FF701A"/>
    <path d="M308.101 87.5283H305.637V94.9226H308.101V87.5283Z" fill="#FF701A"/>
    <path d="M282.961 70.7676H280.496V94.9222H282.961V70.7676Z" fill="#FF701A"/>
    <path d="M157.191 103.697C158.825 103.697 160.149 102.372 160.149 100.739C160.149 99.1055 158.825 97.7812 157.191 97.7812C155.558 97.7812 154.233 99.1055 154.233 100.739C154.233 102.372 155.558 103.697 157.191 103.697Z" fill="#FF701A"/>
    <path d="M138.36 107.624C139.993 107.624 141.317 106.3 141.317 104.667C141.317 103.033 139.993 101.709 138.36 101.709C136.726 101.709 135.402 103.033 135.402 104.667C135.402 106.3 136.726 107.624 138.36 107.624Z" fill="#FF701A"/>
    <path d="M150 112.167C151.633 112.167 152.957 110.843 152.957 109.21C152.957 107.576 151.633 106.252 150 106.252C148.366 106.252 147.042 107.576 147.042 109.21C147.042 110.843 148.366 112.167 150 112.167Z" fill="#FF701A"/>
    <path d="M90.9697 299.176L104.688 299.176V299.002C104.688 297.586 104.126 296.228 103.124 295.227C102.123 294.225 100.765 293.663 99.3486 293.663L96.8424 291.762L92.167 293.663L90.9695 293.663L90.9697 299.176Z" fill="#110B09"/>
    <path d="M124.647 294.522L129.109 294.522L131.231 277.314L124.646 277.315L124.647 294.522Z" fill="#F6F1EE"/>
    <path d="M124.49 299.176L138.209 299.176V299.002C138.209 297.586 137.646 296.228 136.645 295.227C135.644 294.225 134.286 293.663 132.869 293.663L130.363 291.762L125.688 293.663L124.49 293.663L124.49 299.176Z" fill="#110B09"/>
    <path d="M90.9534 154.543L98.8705 153.409C101.548 157.887 102.5 169.804 102.5 169.804L110.248 188.22C110.761 188.568 111.173 189.046 111.443 189.604C111.713 190.163 111.831 190.783 111.785 191.401C111.74 192.02 111.532 192.616 111.182 193.128C110.833 193.641 110.355 194.053 109.796 194.322C109.238 194.591 108.618 194.708 107.999 194.662C107.381 194.615 106.785 194.407 106.273 194.057C105.761 193.707 105.349 193.229 105.081 192.67C104.812 192.11 104.696 191.49 104.743 190.872L92.0214 169.437L90.9534 154.543Z" fill="#C39B89"/>
    <path d="M95.2443 132.564C94.0189 132.753 92.8504 133.211 91.8219 133.904C90.7934 134.596 89.9302 135.507 89.2937 136.571C88.6573 137.636 88.2632 138.827 88.1395 140.061C88.0158 141.295 88.1656 142.541 88.5781 143.71L90.2583 148.472C90.2583 148.472 88.1419 162.811 91.6297 166.858L102.332 165.889C102.332 165.889 100.376 158.655 101.878 155.155C102.798 153.012 102.747 145.608 101.84 139.586C101.148 134.987 99.8401 131.852 95.2443 132.564Z" fill="#98664D"/>
    <path d="M132.153 175.767C132.153 175.767 140.403 183.812 138.641 185.67C136.879 187.528 132.849 190.131 136.59 190.555C140.33 190.979 141.881 191.898 138.641 192.671C135.4 193.444 135.901 195.428 135.901 195.428C135.901 195.428 140.78 218.653 137.083 233.935C137.083 233.935 135.025 275.674 133.734 278.925C132.443 282.175 131.95 280.203 132.443 282.175C132.936 284.147 133.921 280.696 132.936 284.147C132.398 285.949 131.972 287.783 131.66 289.639L122.017 288.16C122.017 288.16 120.464 283.266 122.017 281.981C123.569 280.696 124.962 281.488 123.28 278.627C121.598 275.767 121.105 279.71 121.598 275.767C122.091 271.823 120.033 250.494 123.28 239.222L117.279 207.593L107.752 240.343C107.752 240.343 102.699 280.342 101.057 281.751C99.4148 283.161 96.9501 280.696 99.4148 283.161C101.88 285.626 101.837 285.202 101.88 285.626C102.339 290.147 88.2256 285.202 88.2256 285.202C88.3041 284.053 88.3041 282.9 88.2256 281.751C88.0769 280.696 89.8532 280.359 88.2256 279.295C86.5981 278.232 89.0198 279.286 89.0198 279.286C89.0198 279.286 92.6593 249.778 95.4282 240.836L98.6324 197.291C98.6324 197.291 98.8358 198.159 98.6324 196.048C98.4289 193.937 96.9501 195.416 98.4289 193.937C99.9078 192.458 100.894 191.704 99.9078 190.602C98.9219 189.5 96.2022 187.271 97.8085 185.921C99.4148 184.571 102.576 175.767 102.576 175.767L133.385 176.013" fill="#110B09"/>
    <path d="M120.569 126.878L115.014 120.623L106.236 121.598L100.616 129.463C97.6245 130.151 95.0104 131.959 93.3114 134.516C91.6125 137.072 90.9579 140.182 91.4824 143.207C93.6633 155.765 101.075 167.944 98.6275 174.14C94.9126 183.546 94.686 187.382 103.578 186.063C112.471 184.745 142.262 181.705 136.486 175.929C130.71 170.153 129.442 160.501 129.442 160.501L129.21 138.42C129.456 137.088 129.423 135.72 129.114 134.401C128.805 133.083 128.227 131.842 127.415 130.758C126.603 129.674 125.576 128.77 124.398 128.102C123.22 127.434 121.916 127.018 120.569 126.878Z" fill="#98664D"/>
    <path d="M119.052 151.093L126.969 149.959C129.646 154.436 130.598 166.354 130.598 166.354L138.346 184.77C138.859 185.118 139.271 185.596 139.541 186.154C139.811 186.713 139.929 187.332 139.883 187.951C139.838 188.57 139.63 189.165 139.281 189.678C138.931 190.191 138.453 190.603 137.895 190.872C137.336 191.141 136.716 191.258 136.097 191.212C135.479 191.165 134.883 190.957 134.371 190.607C133.859 190.257 133.448 189.779 133.179 189.219C132.911 188.66 132.794 188.04 132.841 187.422L120.12 165.986L119.052 151.093Z" fill="#C39B89"/>
    <path d="M123.343 129.112C122.117 129.302 120.949 129.76 119.92 130.452C118.892 131.145 118.029 132.056 117.392 133.12C116.756 134.185 116.362 135.376 116.238 136.61C116.114 137.844 116.264 139.09 116.677 140.259L118.357 145.021C118.357 145.021 116.24 159.36 119.728 163.407L130.431 162.438C130.431 162.438 128.474 155.204 129.976 151.704C130.896 149.561 130.845 142.157 129.939 136.135C129.246 131.536 127.938 128.401 123.343 129.112Z" fill="#98664D"/>
    <path d="M108.211 120.085C114.071 120.085 118.821 115.335 118.821 109.475C118.821 103.615 114.071 98.8652 108.211 98.8652C102.352 98.8652 97.6013 103.615 97.6013 109.475C97.6013 115.335 102.352 120.085 108.211 120.085Z" fill="#C39B89"/>
    <path d="M106.26 119.861C109.215 119.121 109.315 118.276 112.27 117.536C113.211 117.3 114.301 116.929 114.58 116C114.646 115.66 114.633 115.31 114.541 114.976C114.448 114.642 114.28 114.335 114.049 114.077C113.583 113.567 113.147 113.031 112.743 112.472C112.475 112.022 112.32 111.514 112.292 110.992C112.265 110.469 112.365 109.948 112.584 109.472C112.803 108.997 113.134 108.582 113.549 108.264C113.965 107.946 114.451 107.733 114.967 107.645C115.881 107.488 116.823 107.731 117.743 107.613C119.005 107.453 120.861 102.772 120.052 101.79C119.265 100.835 117.972 100.265 117.538 99.1051C117.254 98.3468 117.41 97.4989 117.283 96.6991C117.096 95.5132 114.696 98.7966 115.015 97.6393C115.799 94.8002 102.542 94.3531 101.162 97.9954C100.646 99.3566 99.2493 99.5729 98.1752 100.556C97.4712 101.2 95.7875 103.26 95.5434 104.371C95.3412 105.494 95.3801 106.647 95.6575 107.754C96.7585 112.943 98.5783 117.542 103.422 119.703" fill="#110B09"/>
    </g>
    <defs>
    <clipPath id="clip0_1511_3862">
    <rect width="344.22" height="300" fill="white" transform="translate(0.027832)"/>
    </clipPath>
    </defs>
    </svg>
    